0
SECTION
2
HEADER
9
$ACADVER
1
AC1009
0
ENDSEC
0
SECTION
2
TABLES
0
TABLE
2
LAYER
70
5
0
LAYER
2
CUT
70
0
62
1
6
CONTINUOUS
0
LAYER
2
MARK
70
0
62
3
6
CONTINUOUS
0
LAYER
2
REF
70
0
62
8
6
CONTINUOUS
0
LAYER
2
DIM
70
0
62
4
6
CONTINUOUS
0
LAYER
2
NOTE
70
0
62
7
6
CONTINUOUS
0
ENDTAB
0
ENDSEC
0
SECTION
2
ENTITIES
0
LINE
8
REF
10
-150.0000
20
0.0000
30
0.0
11
150.0000
21
0.0000
31
0.0
0
LINE
8
REF
10
150.0000
20
0.0000
30
0.0
11
150.0000
21
165.0000
31
0.0
0
LINE
8
REF
10
150.0000
20
165.0000
30
0.0
11
-150.0000
21
165.0000
31
0.0
0
LINE
8
REF
10
-150.0000
20
165.0000
30
0.0
11
-150.0000
21
0.0000
31
0.0
0
LINE
8
REF
10
-150.0000
20
165.0000
30
0.0
11
150.0000
21
165.0000
31
0.0
0
CIRCLE
8
CUT
10
-102.0000
20
100.0000
30
0.0
40
8.2500
0
LINE
8
MARK
10
-114.2500
20
100.0000
30
0.0
11
-89.7500
21
100.0000
31
0.0
0
LINE
8
MARK
10
-102.0000
20
87.7500
30
0.0
11
-102.0000
21
112.2500
31
0.0
0
CIRCLE
8
CUT
10
-66.0000
20
100.0000
30
0.0
40
8.2500
0
LINE
8
MARK
10
-78.2500
20
100.0000
30
0.0
11
-53.7500
21
100.0000
31
0.0
0
LINE
8
MARK
10
-66.0000
20
87.7500
30
0.0
11
-66.0000
21
112.2500
31
0.0
0
CIRCLE
8
CUT
10
-30.0000
20
100.0000
30
0.0
40
8.2500
0
LINE
8
MARK
10
-42.2500
20
100.0000
30
0.0
11
-17.7500
21
100.0000
31
0.0
0
LINE
8
MARK
10
-30.0000
20
87.7500
30
0.0
11
-30.0000
21
112.2500
31
0.0
0
CIRCLE
8
CUT
10
102.0000
20
100.0000
30
0.0
40
8.2500
0
LINE
8
MARK
10
89.7500
20
100.0000
30
0.0
11
114.2500
21
100.0000
31
0.0
0
LINE
8
MARK
10
102.0000
20
87.7500
30
0.0
11
102.0000
21
112.2500
31
0.0
0
ENDSEC
0
EOF
