0
SECTION
2
HEADER
9
$ACADVER
1
AC1009
0
ENDSEC
0
SECTION
2
TABLES
0
TABLE
2
LAYER
70
5
0
LAYER
2
CUT
70
0
62
1
6
CONTINUOUS
0
LAYER
2
MARK
70
0
62
3
6
CONTINUOUS
0
LAYER
2
REF
70
0
62
8
6
CONTINUOUS
0
LAYER
2
DIM
70
0
62
4
6
CONTINUOUS
0
LAYER
2
NOTE
70
0
62
7
6
CONTINUOUS
0
ENDTAB
0
ENDSEC
0
SECTION
2
ENTITIES
0
LINE
8
REF
10
-130.0000
20
-130.0000
30
0.0
11
130.0000
21
-130.0000
31
0.0
0
LINE
8
REF
10
130.0000
20
-130.0000
30
0.0
11
130.0000
21
130.0000
31
0.0
0
LINE
8
REF
10
130.0000
20
130.0000
30
0.0
11
-130.0000
21
130.0000
31
0.0
0
LINE
8
REF
10
-130.0000
20
130.0000
30
0.0
11
-130.0000
21
-130.0000
31
0.0
0
LINE
8
REF
10
-142.0000
20
0.0000
30
0.0
11
142.0000
21
0.0000
31
0.0
0
LINE
8
REF
10
0.0000
20
-142.0000
30
0.0
11
0.0000
21
142.0000
31
0.0
0
CIRCLE
8
CUT
10
-115.0000
20
19.0000
30
0.0
40
2.2500
0
LINE
8
MARK
10
-121.2500
20
19.0000
30
0.0
11
-108.7500
21
19.0000
31
0.0
0
LINE
8
MARK
10
-115.0000
20
12.7500
30
0.0
11
-115.0000
21
25.2500
31
0.0
0
CIRCLE
8
CUT
10
-5.0000
20
19.0000
30
0.0
40
2.2500
0
LINE
8
MARK
10
-11.2500
20
19.0000
30
0.0
11
1.2500
21
19.0000
31
0.0
0
LINE
8
MARK
10
-5.0000
20
12.7500
30
0.0
11
-5.0000
21
25.2500
31
0.0
0
CIRCLE
8
CUT
10
-115.0000
20
97.0000
30
0.0
40
2.2500
0
LINE
8
MARK
10
-121.2500
20
97.0000
30
0.0
11
-108.7500
21
97.0000
31
0.0
0
LINE
8
MARK
10
-115.0000
20
90.7500
30
0.0
11
-115.0000
21
103.2500
31
0.0
0
CIRCLE
8
CUT
10
-5.0000
20
97.0000
30
0.0
40
2.2500
0
LINE
8
MARK
10
-11.2500
20
97.0000
30
0.0
11
1.2500
21
97.0000
31
0.0
0
LINE
8
MARK
10
-5.0000
20
90.7500
30
0.0
11
-5.0000
21
103.2500
31
0.0
0
CIRCLE
8
CUT
10
68.0000
20
28.0000
30
0.0
40
2.2500
0
LINE
8
MARK
10
61.7500
20
28.0000
30
0.0
11
74.2500
21
28.0000
31
0.0
0
LINE
8
MARK
10
68.0000
20
21.7500
30
0.0
11
68.0000
21
34.2500
31
0.0
0
CIRCLE
8
CUT
10
68.0000
20
88.0000
30
0.0
40
2.2500
0
LINE
8
MARK
10
61.7500
20
88.0000
30
0.0
11
74.2500
21
88.0000
31
0.0
0
LINE
8
MARK
10
68.0000
20
81.7500
30
0.0
11
68.0000
21
94.2500
31
0.0
0
CIRCLE
8
CUT
10
-96.0000
20
-78.0000
30
0.0
40
2.2500
0
LINE
8
MARK
10
-102.2500
20
-78.0000
30
0.0
11
-89.7500
21
-78.0000
31
0.0
0
LINE
8
MARK
10
-96.0000
20
-84.2500
30
0.0
11
-96.0000
21
-71.7500
31
0.0
0
CIRCLE
8
CUT
10
-4.0000
20
-78.0000
30
0.0
40
2.2500
0
LINE
8
MARK
10
-10.2500
20
-78.0000
30
0.0
11
2.2500
21
-78.0000
31
0.0
0
LINE
8
MARK
10
-4.0000
20
-84.2500
30
0.0
11
-4.0000
21
-71.7500
31
0.0
0
CIRCLE
8
CUT
10
112.0000
20
-112.0000
30
0.0
40
2.2500
0
LINE
8
MARK
10
105.7500
20
-112.0000
30
0.0
11
118.2500
21
-112.0000
31
0.0
0
LINE
8
MARK
10
112.0000
20
-118.2500
30
0.0
11
112.0000
21
-105.7500
31
0.0
0
LINE
8
REF
10
-125.0000
20
9.0000
30
0.0
11
5.0000
21
9.0000
31
0.0
0
LINE
8
REF
10
5.0000
20
9.0000
30
0.0
11
5.0000
21
107.0000
31
0.0
0
LINE
8
REF
10
5.0000
20
107.0000
30
0.0
11
-125.0000
21
107.0000
31
0.0
0
LINE
8
REF
10
-125.0000
20
107.0000
30
0.0
11
-125.0000
21
9.0000
31
0.0
0
CIRCLE
8
REF
10
68.0000
20
58.0000
30
0.0
40
43.0000
0
LINE
8
REF
10
-102.0000
20
-91.0000
30
0.0
11
2.0000
21
-91.0000
31
0.0
0
LINE
8
REF
10
2.0000
20
-91.0000
30
0.0
11
2.0000
21
-65.0000
31
0.0
0
LINE
8
REF
10
2.0000
20
-65.0000
30
0.0
11
-102.0000
21
-65.0000
31
0.0
0
LINE
8
REF
10
-102.0000
20
-65.0000
30
0.0
11
-102.0000
21
-91.0000
31
0.0
0
ENDSEC
0
EOF
