0
SECTION
2
HEADER
9
$ACADVER
1
AC1009
0
ENDSEC
0
SECTION
2
TABLES
0
TABLE
2
LAYER
70
5
0
LAYER
2
CUT
70
0
62
1
6
CONTINUOUS
0
LAYER
2
MARK
70
0
62
3
6
CONTINUOUS
0
LAYER
2
REF
70
0
62
8
6
CONTINUOUS
0
LAYER
2
DIM
70
0
62
4
6
CONTINUOUS
0
LAYER
2
NOTE
70
0
62
7
6
CONTINUOUS
0
ENDTAB
0
ENDSEC
0
SECTION
2
ENTITIES
0
LINE
8
REF
10
-130.0000
20
-105.0000
30
0.0
11
130.0000
21
-105.0000
31
0.0
0
LINE
8
REF
10
130.0000
20
-105.0000
30
0.0
11
130.0000
21
105.0000
31
0.0
0
LINE
8
REF
10
130.0000
20
105.0000
30
0.0
11
-130.0000
21
105.0000
31
0.0
0
LINE
8
REF
10
-130.0000
20
105.0000
30
0.0
11
-130.0000
21
-105.0000
31
0.0
0
LINE
8
REF
10
-142.0000
20
0.0000
30
0.0
11
142.0000
21
0.0000
31
0.0
0
LINE
8
REF
10
0.0000
20
-117.0000
30
0.0
11
0.0000
21
117.0000
31
0.0
0
CIRCLE
8
CUT
10
-105.0000
20
-45.0000
30
0.0
40
2.2500
0
LINE
8
MARK
10
-111.2500
20
-45.0000
30
0.0
11
-98.7500
21
-45.0000
31
0.0
0
LINE
8
MARK
10
-105.0000
20
-51.2500
30
0.0
11
-105.0000
21
-38.7500
31
0.0
0
CIRCLE
8
CUT
10
-35.0000
20
-45.0000
30
0.0
40
2.2500
0
LINE
8
MARK
10
-41.2500
20
-45.0000
30
0.0
11
-28.7500
21
-45.0000
31
0.0
0
LINE
8
MARK
10
-35.0000
20
-51.2500
30
0.0
11
-35.0000
21
-38.7500
31
0.0
0
CIRCLE
8
CUT
10
35.0000
20
-45.0000
30
0.0
40
2.2500
0
LINE
8
MARK
10
28.7500
20
-45.0000
30
0.0
11
41.2500
21
-45.0000
31
0.0
0
LINE
8
MARK
10
35.0000
20
-51.2500
30
0.0
11
35.0000
21
-38.7500
31
0.0
0
CIRCLE
8
CUT
10
105.0000
20
-45.0000
30
0.0
40
2.2500
0
LINE
8
MARK
10
98.7500
20
-45.0000
30
0.0
11
111.2500
21
-45.0000
31
0.0
0
LINE
8
MARK
10
105.0000
20
-51.2500
30
0.0
11
105.0000
21
-38.7500
31
0.0
0
CIRCLE
8
CUT
10
-89.0000
20
40.5000
30
0.0
40
1.6000
0
LINE
8
MARK
10
-93.6000
20
40.5000
30
0.0
11
-84.4000
21
40.5000
31
0.0
0
LINE
8
MARK
10
-89.0000
20
35.9000
30
0.0
11
-89.0000
21
45.1000
31
0.0
0
CIRCLE
8
CUT
10
-31.0000
20
40.5000
30
0.0
40
1.6000
0
LINE
8
MARK
10
-35.6000
20
40.5000
30
0.0
11
-26.4000
21
40.5000
31
0.0
0
LINE
8
MARK
10
-31.0000
20
35.9000
30
0.0
11
-31.0000
21
45.1000
31
0.0
0
CIRCLE
8
CUT
10
-89.0000
20
89.5000
30
0.0
40
1.6000
0
LINE
8
MARK
10
-93.6000
20
89.5000
30
0.0
11
-84.4000
21
89.5000
31
0.0
0
LINE
8
MARK
10
-89.0000
20
84.9000
30
0.0
11
-89.0000
21
94.1000
31
0.0
0
CIRCLE
8
CUT
10
-31.0000
20
89.5000
30
0.0
40
1.6000
0
LINE
8
MARK
10
-35.6000
20
89.5000
30
0.0
11
-26.4000
21
89.5000
31
0.0
0
LINE
8
MARK
10
-31.0000
20
84.9000
30
0.0
11
-31.0000
21
94.1000
31
0.0
0
CIRCLE
8
CUT
10
-112.0000
20
60.0000
30
0.0
40
1.6000
0
LINE
8
MARK
10
-116.6000
20
60.0000
30
0.0
11
-107.4000
21
60.0000
31
0.0
0
LINE
8
MARK
10
-112.0000
20
55.4000
30
0.0
11
-112.0000
21
64.6000
31
0.0
0
CIRCLE
8
CUT
10
-112.0000
20
85.0000
30
0.0
40
1.6000
0
LINE
8
MARK
10
-116.6000
20
85.0000
30
0.0
11
-107.4000
21
85.0000
31
0.0
0
LINE
8
MARK
10
-112.0000
20
80.4000
30
0.0
11
-112.0000
21
89.6000
31
0.0
0
CIRCLE
8
CUT
10
95.0000
20
40.0000
30
0.0
40
2.2500
0
LINE
8
MARK
10
88.7500
20
40.0000
30
0.0
11
101.2500
21
40.0000
31
0.0
0
LINE
8
MARK
10
95.0000
20
33.7500
30
0.0
11
95.0000
21
46.2500
31
0.0
0
CIRCLE
8
CUT
10
95.0000
20
90.0000
30
0.0
40
2.2500
0
LINE
8
MARK
10
88.7500
20
90.0000
30
0.0
11
101.2500
21
90.0000
31
0.0
0
LINE
8
MARK
10
95.0000
20
83.7500
30
0.0
11
95.0000
21
96.2500
31
0.0
0
CIRCLE
8
CUT
10
120.0000
20
-95.0000
30
0.0
40
2.2500
0
LINE
8
MARK
10
113.7500
20
-95.0000
30
0.0
11
126.2500
21
-95.0000
31
0.0
0
LINE
8
MARK
10
120.0000
20
-101.2500
30
0.0
11
120.0000
21
-88.7500
31
0.0
0
LINE
8
REF
10
-120.0000
20
-62.5000
30
0.0
11
120.0000
21
-62.5000
31
0.0
0
LINE
8
REF
10
120.0000
20
-62.5000
30
0.0
11
120.0000
21
-27.5000
31
0.0
0
LINE
8
REF
10
120.0000
20
-27.5000
30
0.0
11
-120.0000
21
-27.5000
31
0.0
0
LINE
8
REF
10
-120.0000
20
-27.5000
30
0.0
11
-120.0000
21
-62.5000
31
0.0
0
LINE
8
REF
10
-92.5000
20
37.0000
30
0.0
11
-7.5000
21
37.0000
31
0.0
0
LINE
8
REF
10
-7.5000
20
37.0000
30
0.0
11
-7.5000
21
93.0000
31
0.0
0
LINE
8
REF
10
-7.5000
20
93.0000
30
0.0
11
-92.5000
21
93.0000
31
0.0
0
LINE
8
REF
10
-92.5000
20
93.0000
30
0.0
11
-92.5000
21
37.0000
31
0.0
0
LINE
8
REF
10
-7.5000
20
55.0000
30
0.0
11
62.5000
21
55.0000
31
0.0
0
LINE
8
REF
10
62.5000
20
55.0000
30
0.0
11
62.5000
21
75.0000
31
0.0
0
LINE
8
REF
10
62.5000
20
75.0000
30
0.0
11
-7.5000
21
75.0000
31
0.0
0
LINE
8
REF
10
-7.5000
20
75.0000
30
0.0
11
-7.5000
21
55.0000
31
0.0
0
ENDSEC
0
EOF
