0
SECTION
2
HEADER
9
$ACADVER
1
AC1009
0
ENDSEC
0
SECTION
2
TABLES
0
TABLE
2
LAYER
70
5
0
LAYER
2
CUT
70
0
62
1
6
CONTINUOUS
0
LAYER
2
MARK
70
0
62
3
6
CONTINUOUS
0
LAYER
2
REF
70
0
62
8
6
CONTINUOUS
0
LAYER
2
DIM
70
0
62
4
6
CONTINUOUS
0
LAYER
2
NOTE
70
0
62
7
6
CONTINUOUS
0
ENDTAB
0
ENDSEC
0
SECTION
2
ENTITIES
0
LINE
8
CUT
10
-107.0000
20
-70.5000
30
0.0
11
107.0000
21
-70.5000
31
0.0
0
LINE
8
CUT
10
112.0000
20
-65.5000
30
0.0
11
112.0000
21
65.5000
31
0.0
0
LINE
8
CUT
10
107.0000
20
70.5000
30
0.0
11
-107.0000
21
70.5000
31
0.0
0
LINE
8
CUT
10
-112.0000
20
65.5000
30
0.0
11
-112.0000
21
-65.5000
31
0.0
0
ARC
8
CUT
10
107.0000
20
-65.5000
30
0.0
40
5.0000
50
270.0000
51
360.0000
0
ARC
8
CUT
10
107.0000
20
65.5000
30
0.0
40
5.0000
50
0.0000
51
90.0000
0
ARC
8
CUT
10
-107.0000
20
65.5000
30
0.0
40
5.0000
50
90.0000
51
180.0000
0
ARC
8
CUT
10
-107.0000
20
-65.5000
30
0.0
40
5.0000
50
180.0000
51
270.0000
0
LINE
8
CUT
10
-86.0000
20
-47.5000
30
0.0
11
86.0000
21
-47.5000
31
0.0
0
LINE
8
CUT
10
89.0000
20
-44.5000
30
0.0
11
89.0000
21
44.5000
31
0.0
0
LINE
8
CUT
10
86.0000
20
47.5000
30
0.0
11
-86.0000
21
47.5000
31
0.0
0
LINE
8
CUT
10
-89.0000
20
44.5000
30
0.0
11
-89.0000
21
-44.5000
31
0.0
0
ARC
8
CUT
10
86.0000
20
-44.5000
30
0.0
40
3.0000
50
270.0000
51
360.0000
0
ARC
8
CUT
10
86.0000
20
44.5000
30
0.0
40
3.0000
50
0.0000
51
90.0000
0
ARC
8
CUT
10
-86.0000
20
44.5000
30
0.0
40
3.0000
50
90.0000
51
180.0000
0
ARC
8
CUT
10
-86.0000
20
-44.5000
30
0.0
40
3.0000
50
180.0000
51
270.0000
0
CIRCLE
8
CUT
10
-105.0000
20
-63.5000
30
0.0
40
1.7000
0
LINE
8
MARK
10
-109.7000
20
-63.5000
30
0.0
11
-100.3000
21
-63.5000
31
0.0
0
LINE
8
MARK
10
-105.0000
20
-68.2000
30
0.0
11
-105.0000
21
-58.8000
31
0.0
0
CIRCLE
8
CUT
10
-105.0000
20
63.5000
30
0.0
40
1.7000
0
LINE
8
MARK
10
-109.7000
20
63.5000
30
0.0
11
-100.3000
21
63.5000
31
0.0
0
LINE
8
MARK
10
-105.0000
20
58.8000
30
0.0
11
-105.0000
21
68.2000
31
0.0
0
CIRCLE
8
CUT
10
105.0000
20
-63.5000
30
0.0
40
1.7000
0
LINE
8
MARK
10
100.3000
20
-63.5000
30
0.0
11
109.7000
21
-63.5000
31
0.0
0
LINE
8
MARK
10
105.0000
20
-68.2000
30
0.0
11
105.0000
21
-58.8000
31
0.0
0
CIRCLE
8
CUT
10
105.0000
20
63.5000
30
0.0
40
1.7000
0
LINE
8
MARK
10
100.3000
20
63.5000
30
0.0
11
109.7000
21
63.5000
31
0.0
0
LINE
8
MARK
10
105.0000
20
58.8000
30
0.0
11
105.0000
21
68.2000
31
0.0
0
LINE
8
REF
10
-97.0000
20
-55.5000
30
0.0
11
97.0000
21
-55.5000
31
0.0
0
LINE
8
REF
10
97.0000
20
-55.5000
30
0.0
11
97.0000
21
55.5000
31
0.0
0
LINE
8
REF
10
97.0000
20
55.5000
30
0.0
11
-97.0000
21
55.5000
31
0.0
0
LINE
8
REF
10
-97.0000
20
55.5000
30
0.0
11
-97.0000
21
-55.5000
31
0.0
0
LINE
8
REF
10
-124.0000
20
0.0000
30
0.0
11
124.0000
21
0.0000
31
0.0
0
LINE
8
REF
10
0.0000
20
-82.5000
30
0.0
11
0.0000
21
82.5000
31
0.0
0
ENDSEC
0
EOF
