0
SECTION
2
HEADER
9
$ACADVER
1
AC1009
0
ENDSEC
0
SECTION
2
TABLES
0
TABLE
2
LAYER
70
5
0
LAYER
2
CUT
70
0
62
1
6
CONTINUOUS
0
LAYER
2
MARK
70
0
62
3
6
CONTINUOUS
0
LAYER
2
REF
70
0
62
8
6
CONTINUOUS
0
LAYER
2
DIM
70
0
62
4
6
CONTINUOUS
0
LAYER
2
NOTE
70
0
62
7
6
CONTINUOUS
0
ENDTAB
0
ENDSEC
0
SECTION
2
ENTITIES
0
LINE
8
CUT
10
-170.0000
20
0.0000
30
0.0
11
170.0000
21
0.0000
31
0.0
0
LINE
8
CUT
10
170.0000
20
0.0000
30
0.0
11
170.0000
21
270.0000
31
0.0
0
LINE
8
CUT
10
170.0000
20
270.0000
30
0.0
11
-170.0000
21
270.0000
31
0.0
0
LINE
8
CUT
10
-170.0000
20
270.0000
30
0.0
11
-170.0000
21
0.0000
31
0.0
0
LINE
8
MARK
10
-170.0000
20
40.0000
30
0.0
11
170.0000
21
40.0000
31
0.0
0
LINE
8
MARK
10
-170.0000
20
230.0000
30
0.0
11
170.0000
21
230.0000
31
0.0
0
CIRCLE
8
CUT
10
-120.0000
20
20.0000
30
0.0
40
2.7500
0
LINE
8
MARK
10
-126.7500
20
20.0000
30
0.0
11
-113.2500
21
20.0000
31
0.0
0
LINE
8
MARK
10
-120.0000
20
13.2500
30
0.0
11
-120.0000
21
26.7500
31
0.0
0
CIRCLE
8
CUT
10
-40.0000
20
20.0000
30
0.0
40
2.7500
0
LINE
8
MARK
10
-46.7500
20
20.0000
30
0.0
11
-33.2500
21
20.0000
31
0.0
0
LINE
8
MARK
10
-40.0000
20
13.2500
30
0.0
11
-40.0000
21
26.7500
31
0.0
0
CIRCLE
8
CUT
10
40.0000
20
20.0000
30
0.0
40
2.7500
0
LINE
8
MARK
10
33.2500
20
20.0000
30
0.0
11
46.7500
21
20.0000
31
0.0
0
LINE
8
MARK
10
40.0000
20
13.2500
30
0.0
11
40.0000
21
26.7500
31
0.0
0
CIRCLE
8
CUT
10
120.0000
20
20.0000
30
0.0
40
2.7500
0
LINE
8
MARK
10
113.2500
20
20.0000
30
0.0
11
126.7500
21
20.0000
31
0.0
0
LINE
8
MARK
10
120.0000
20
13.2500
30
0.0
11
120.0000
21
26.7500
31
0.0
0
ENDSEC
0
EOF
