0
SECTION
2
HEADER
9
$ACADVER
1
AC1009
0
ENDSEC
0
SECTION
2
TABLES
0
TABLE
2
LAYER
70
5
0
LAYER
2
CUT
70
0
62
1
6
CONTINUOUS
0
LAYER
2
MARK
70
0
62
3
6
CONTINUOUS
0
LAYER
2
REF
70
0
62
8
6
CONTINUOUS
0
LAYER
2
DIM
70
0
62
4
6
CONTINUOUS
0
LAYER
2
NOTE
70
0
62
7
6
CONTINUOUS
0
ENDTAB
0
ENDSEC
0
SECTION
2
ENTITIES
0
LINE
8
CUT
10
88.0000
20
-12.0000
30
0.0
11
132.0000
21
-12.0000
31
0.0
0
LINE
8
CUT
10
132.0000
20
-12.0000
30
0.0
11
132.0000
21
0.0000
31
0.0
0
LINE
8
CUT
10
132.0000
20
0.0000
30
0.0
11
88.0000
21
0.0000
31
0.0
0
LINE
8
CUT
10
88.0000
20
0.0000
30
0.0
11
88.0000
21
-12.0000
31
0.0
0
LINE
8
CUT
10
-132.0000
20
-12.0000
30
0.0
11
-88.0000
21
-12.0000
31
0.0
0
LINE
8
CUT
10
-88.0000
20
-12.0000
30
0.0
11
-88.0000
21
0.0000
31
0.0
0
LINE
8
CUT
10
-88.0000
20
0.0000
30
0.0
11
-132.0000
21
0.0000
31
0.0
0
LINE
8
CUT
10
-132.0000
20
0.0000
30
0.0
11
-132.0000
21
-12.0000
31
0.0
0
LINE
8
MARK
10
88.0000
20
-20.0000
30
0.0
11
93.0000
21
-20.0000
31
0.0
0
LINE
8
MARK
10
93.0000
20
-20.0000
30
0.0
11
93.0000
21
-12.0000
31
0.0
0
LINE
8
MARK
10
93.0000
20
-12.0000
30
0.0
11
88.0000
21
-12.0000
31
0.0
0
LINE
8
MARK
10
88.0000
20
-12.0000
30
0.0
11
88.0000
21
-20.0000
31
0.0
0
LINE
8
MARK
10
-93.0000
20
-20.0000
30
0.0
11
-88.0000
21
-20.0000
31
0.0
0
LINE
8
MARK
10
-88.0000
20
-20.0000
30
0.0
11
-88.0000
21
-12.0000
31
0.0
0
LINE
8
MARK
10
-88.0000
20
-12.0000
30
0.0
11
-93.0000
21
-12.0000
31
0.0
0
LINE
8
MARK
10
-93.0000
20
-12.0000
30
0.0
11
-93.0000
21
-20.0000
31
0.0
0
LINE
8
CUT
10
-97.0000
20
-32.0000
30
0.0
11
97.0000
21
-32.0000
31
0.0
0
LINE
8
CUT
10
97.0000
20
-32.0000
30
0.0
11
97.0000
21
-20.0000
31
0.0
0
LINE
8
CUT
10
97.0000
20
-20.0000
30
0.0
11
-97.0000
21
-20.0000
31
0.0
0
LINE
8
CUT
10
-97.0000
20
-20.0000
30
0.0
11
-97.0000
21
-32.0000
31
0.0
0
LINE
8
REF
10
-94.0000
20
-40.0000
30
0.0
11
94.0000
21
-40.0000
31
0.0
0
LINE
8
REF
10
94.0000
20
-40.0000
30
0.0
11
94.0000
21
-32.0000
31
0.0
0
LINE
8
REF
10
94.0000
20
-32.0000
30
0.0
11
-94.0000
21
-32.0000
31
0.0
0
LINE
8
REF
10
-94.0000
20
-32.0000
30
0.0
11
-94.0000
21
-40.0000
31
0.0
0
LINE
8
MARK
10
89.0000
20
-52.0000
30
0.0
11
97.0000
21
-52.0000
31
0.0
0
LINE
8
MARK
10
97.0000
20
-52.0000
30
0.0
11
97.0000
21
-40.0000
31
0.0
0
LINE
8
MARK
10
97.0000
20
-40.0000
30
0.0
11
89.0000
21
-40.0000
31
0.0
0
LINE
8
MARK
10
89.0000
20
-40.0000
30
0.0
11
89.0000
21
-52.0000
31
0.0
0
LINE
8
MARK
10
-97.0000
20
-52.0000
30
0.0
11
-89.0000
21
-52.0000
31
0.0
0
LINE
8
MARK
10
-89.0000
20
-52.0000
30
0.0
11
-89.0000
21
-40.0000
31
0.0
0
LINE
8
MARK
10
-89.0000
20
-40.0000
30
0.0
11
-97.0000
21
-40.0000
31
0.0
0
LINE
8
MARK
10
-97.0000
20
-40.0000
30
0.0
11
-97.0000
21
-52.0000
31
0.0
0
LINE
8
CUT
10
89.0000
20
-64.0000
30
0.0
11
112.0000
21
-64.0000
31
0.0
0
LINE
8
CUT
10
112.0000
20
-64.0000
30
0.0
11
112.0000
21
-52.0000
31
0.0
0
LINE
8
CUT
10
112.0000
20
-52.0000
30
0.0
11
89.0000
21
-52.0000
31
0.0
0
LINE
8
CUT
10
89.0000
20
-52.0000
30
0.0
11
89.0000
21
-64.0000
31
0.0
0
LINE
8
CUT
10
-112.0000
20
-64.0000
30
0.0
11
-89.0000
21
-64.0000
31
0.0
0
LINE
8
CUT
10
-89.0000
20
-64.0000
30
0.0
11
-89.0000
21
-52.0000
31
0.0
0
LINE
8
CUT
10
-89.0000
20
-52.0000
30
0.0
11
-112.0000
21
-52.0000
31
0.0
0
LINE
8
CUT
10
-112.0000
20
-52.0000
30
0.0
11
-112.0000
21
-64.0000
31
0.0
0
LINE
8
REF
10
101.0000
20
-52.0000
30
0.0
11
109.0000
21
-52.0000
31
0.0
0
LINE
8
REF
10
109.0000
20
-52.0000
30
0.0
11
109.0000
21
-12.0000
31
0.0
0
LINE
8
REF
10
109.0000
20
-12.0000
30
0.0
11
101.0000
21
-12.0000
31
0.0
0
LINE
8
REF
10
101.0000
20
-12.0000
30
0.0
11
101.0000
21
-52.0000
31
0.0
0
LINE
8
MARK
10
105.0000
20
-12.0000
30
0.0
11
105.0000
21
-74.0000
31
0.0
0
LINE
8
REF
10
-109.0000
20
-52.0000
30
0.0
11
-101.0000
21
-52.0000
31
0.0
0
LINE
8
REF
10
-101.0000
20
-52.0000
30
0.0
11
-101.0000
21
-12.0000
31
0.0
0
LINE
8
REF
10
-101.0000
20
-12.0000
30
0.0
11
-109.0000
21
-12.0000
31
0.0
0
LINE
8
REF
10
-109.0000
20
-12.0000
30
0.0
11
-109.0000
21
-52.0000
31
0.0
0
LINE
8
MARK
10
-105.0000
20
-12.0000
30
0.0
11
-105.0000
21
-74.0000
31
0.0
0
LINE
8
REF
10
0.0000
20
0.0000
30
0.0
11
0.0000
21
0.0000
31
0.0
0
LINE
8
REF
10
0.0000
20
0.0000
30
0.0
11
0.0000
21
0.0000
31
0.0
0
LINE
8
REF
10
0.0000
20
14.0000
30
0.0
11
0.0000
21
-94.0000
31
0.0
0
ENDSEC
0
EOF
