0
SECTION
2
HEADER
9
$ACADVER
1
AC1009
0
ENDSEC
0
SECTION
2
TABLES
0
TABLE
2
LAYER
70
5
0
LAYER
2
CUT
70
0
62
1
6
CONTINUOUS
0
LAYER
2
MARK
70
0
62
3
6
CONTINUOUS
0
LAYER
2
REF
70
0
62
8
6
CONTINUOUS
0
LAYER
2
DIM
70
0
62
4
6
CONTINUOUS
0
LAYER
2
NOTE
70
0
62
7
6
CONTINUOUS
0
ENDTAB
0
ENDSEC
0
SECTION
2
ENTITIES
0
LINE
8
CUT
10
-270.0000
20
165.0000
30
0.0
11
30.0000
21
165.0000
31
0.0
0
LINE
8
CUT
10
30.0000
20
165.0000
30
0.0
11
30.0000
21
415.0000
31
0.0
0
LINE
8
CUT
10
30.0000
20
415.0000
30
0.0
11
-270.0000
21
415.0000
31
0.0
0
LINE
8
CUT
10
-270.0000
20
415.0000
30
0.0
11
-270.0000
21
165.0000
31
0.0
0
LINE
8
REF
10
-250.0000
20
185.0000
30
0.0
11
10.0000
21
185.0000
31
0.0
0
LINE
8
REF
10
10.0000
20
185.0000
30
0.0
11
10.0000
21
395.0000
31
0.0
0
LINE
8
REF
10
10.0000
20
395.0000
30
0.0
11
-250.0000
21
395.0000
31
0.0
0
LINE
8
REF
10
-250.0000
20
395.0000
30
0.0
11
-250.0000
21
185.0000
31
0.0
0
LINE
8
CUT
10
-205.0000
20
243.0000
30
0.0
11
-35.0000
21
243.0000
31
0.0
0
LINE
8
CUT
10
-32.0000
20
246.0000
30
0.0
11
-32.0000
21
334.0000
31
0.0
0
LINE
8
CUT
10
-35.0000
20
337.0000
30
0.0
11
-205.0000
21
337.0000
31
0.0
0
LINE
8
CUT
10
-208.0000
20
334.0000
30
0.0
11
-208.0000
21
246.0000
31
0.0
0
ARC
8
CUT
10
-35.0000
20
246.0000
30
0.0
40
3.0000
50
270.0000
51
360.0000
0
ARC
8
CUT
10
-35.0000
20
334.0000
30
0.0
40
3.0000
50
0.0000
51
90.0000
0
ARC
8
CUT
10
-205.0000
20
334.0000
30
0.0
40
3.0000
50
90.0000
51
180.0000
0
ARC
8
CUT
10
-205.0000
20
246.0000
30
0.0
40
3.0000
50
180.0000
51
270.0000
0
CIRCLE
8
MARK
10
-255.0000
20
185.0000
30
0.0
40
2.0000
0
CIRCLE
8
MARK
10
-255.0000
20
290.0000
30
0.0
40
2.0000
0
CIRCLE
8
MARK
10
-255.0000
20
395.0000
30
0.0
40
2.0000
0
CIRCLE
8
MARK
10
15.0000
20
185.0000
30
0.0
40
2.0000
0
CIRCLE
8
MARK
10
15.0000
20
290.0000
30
0.0
40
2.0000
0
CIRCLE
8
MARK
10
15.0000
20
395.0000
30
0.0
40
2.0000
0
LINE
8
CUT
10
115.0000
20
165.0000
30
0.0
11
265.0000
21
165.0000
31
0.0
0
LINE
8
CUT
10
265.0000
20
165.0000
30
0.0
11
265.0000
21
415.0000
31
0.0
0
LINE
8
CUT
10
265.0000
20
415.0000
30
0.0
11
115.0000
21
415.0000
31
0.0
0
LINE
8
CUT
10
115.0000
20
415.0000
30
0.0
11
115.0000
21
165.0000
31
0.0
0
LINE
8
MARK
10
262.0000
20
165.0000
30
0.0
11
262.0000
21
415.0000
31
0.0
0
LINE
8
MARK
10
130.0000
20
165.0000
30
0.0
11
130.0000
21
415.0000
31
0.0
0
LINE
8
MARK
10
186.5000
20
195.0000
30
0.0
11
186.5000
21
385.0000
31
0.0
0
LINE
8
CUT
10
-270.0000
20
-175.0000
30
0.0
11
30.0000
21
-175.0000
31
0.0
0
LINE
8
CUT
10
30.0000
20
-175.0000
30
0.0
11
30.0000
21
75.0000
31
0.0
0
LINE
8
CUT
10
30.0000
20
75.0000
30
0.0
11
-270.0000
21
75.0000
31
0.0
0
LINE
8
CUT
10
-270.0000
20
75.0000
30
0.0
11
-270.0000
21
-175.0000
31
0.0
0
LINE
8
MARK
10
-253.0000
20
-153.0000
30
0.0
11
-227.0000
21
-153.0000
31
0.0
0
LINE
8
MARK
10
-227.0000
20
-153.0000
30
0.0
11
-227.0000
21
-137.0000
31
0.0
0
LINE
8
MARK
10
-227.0000
20
-137.0000
30
0.0
11
-253.0000
21
-137.0000
31
0.0
0
LINE
8
MARK
10
-253.0000
20
-137.0000
30
0.0
11
-253.0000
21
-153.0000
31
0.0
0
LINE
8
MARK
10
-253.0000
20
37.0000
30
0.0
11
-227.0000
21
37.0000
31
0.0
0
LINE
8
MARK
10
-227.0000
20
37.0000
30
0.0
11
-227.0000
21
53.0000
31
0.0
0
LINE
8
MARK
10
-227.0000
20
53.0000
30
0.0
11
-253.0000
21
53.0000
31
0.0
0
LINE
8
MARK
10
-253.0000
20
53.0000
30
0.0
11
-253.0000
21
37.0000
31
0.0
0
LINE
8
MARK
10
-13.0000
20
-153.0000
30
0.0
11
13.0000
21
-153.0000
31
0.0
0
LINE
8
MARK
10
13.0000
20
-153.0000
30
0.0
11
13.0000
21
-137.0000
31
0.0
0
LINE
8
MARK
10
13.0000
20
-137.0000
30
0.0
11
-13.0000
21
-137.0000
31
0.0
0
LINE
8
MARK
10
-13.0000
20
-137.0000
30
0.0
11
-13.0000
21
-153.0000
31
0.0
0
LINE
8
MARK
10
-13.0000
20
37.0000
30
0.0
11
13.0000
21
37.0000
31
0.0
0
LINE
8
MARK
10
13.0000
20
37.0000
30
0.0
11
13.0000
21
53.0000
31
0.0
0
LINE
8
MARK
10
13.0000
20
53.0000
30
0.0
11
-13.0000
21
53.0000
31
0.0
0
LINE
8
MARK
10
-13.0000
20
53.0000
30
0.0
11
-13.0000
21
37.0000
31
0.0
0
LINE
8
CUT
10
40.0000
20
-125.0000
30
0.0
11
340.0000
21
-125.0000
31
0.0
0
LINE
8
CUT
10
340.0000
20
-125.0000
30
0.0
11
340.0000
21
25.0000
31
0.0
0
LINE
8
CUT
10
340.0000
20
25.0000
30
0.0
11
40.0000
21
25.0000
31
0.0
0
LINE
8
CUT
10
40.0000
20
25.0000
30
0.0
11
40.0000
21
-125.0000
31
0.0
0
LINE
8
REF
10
40.0000
20
22.0000
30
0.0
11
340.0000
21
22.0000
31
0.0
0
ENDSEC
0
EOF
