0
SECTION
2
HEADER
9
$ACADVER
1
AC1009
0
ENDSEC
0
SECTION
2
TABLES
0
TABLE
2
LAYER
70
5
0
LAYER
2
CUT
70
0
62
1
6
CONTINUOUS
0
LAYER
2
MARK
70
0
62
3
6
CONTINUOUS
0
LAYER
2
REF
70
0
62
8
6
CONTINUOUS
0
LAYER
2
DIM
70
0
62
4
6
CONTINUOUS
0
LAYER
2
NOTE
70
0
62
7
6
CONTINUOUS
0
ENDTAB
0
ENDSEC
0
SECTION
2
ENTITIES
0
LINE
8
CUT
10
-270.0000
20
150.0000
30
0.0
11
30.0000
21
150.0000
31
0.0
0
LINE
8
CUT
10
30.0000
20
150.0000
30
0.0
11
30.0000
21
450.0000
31
0.0
0
LINE
8
CUT
10
30.0000
20
450.0000
30
0.0
11
-270.0000
21
450.0000
31
0.0
0
LINE
8
CUT
10
-270.0000
20
450.0000
30
0.0
11
-270.0000
21
150.0000
31
0.0
0
LINE
8
REF
10
-252.5000
20
167.5000
30
0.0
11
12.5000
21
167.5000
31
0.0
0
LINE
8
REF
10
12.5000
20
167.5000
30
0.0
11
12.5000
21
432.5000
31
0.0
0
LINE
8
REF
10
12.5000
20
432.5000
30
0.0
11
-252.5000
21
432.5000
31
0.0
0
LINE
8
REF
10
-252.5000
20
432.5000
30
0.0
11
-252.5000
21
167.5000
31
0.0
0
LINE
8
CUT
10
-205.0000
20
253.0000
30
0.0
11
-35.0000
21
253.0000
31
0.0
0
LINE
8
CUT
10
-32.0000
20
256.0000
30
0.0
11
-32.0000
21
344.0000
31
0.0
0
LINE
8
CUT
10
-35.0000
20
347.0000
30
0.0
11
-205.0000
21
347.0000
31
0.0
0
LINE
8
CUT
10
-208.0000
20
344.0000
30
0.0
11
-208.0000
21
256.0000
31
0.0
0
ARC
8
CUT
10
-35.0000
20
256.0000
30
0.0
40
3.0000
50
270.0000
51
360.0000
0
ARC
8
CUT
10
-35.0000
20
344.0000
30
0.0
40
3.0000
50
0.0000
51
90.0000
0
ARC
8
CUT
10
-205.0000
20
344.0000
30
0.0
40
3.0000
50
90.0000
51
180.0000
0
ARC
8
CUT
10
-205.0000
20
256.0000
30
0.0
40
3.0000
50
180.0000
51
270.0000
0
CIRCLE
8
MARK
10
-255.0000
20
170.0000
30
0.0
40
2.0000
0
CIRCLE
8
MARK
10
-255.0000
20
300.0000
30
0.0
40
2.0000
0
CIRCLE
8
MARK
10
-255.0000
20
430.0000
30
0.0
40
2.0000
0
CIRCLE
8
MARK
10
15.0000
20
170.0000
30
0.0
40
2.0000
0
CIRCLE
8
MARK
10
15.0000
20
300.0000
30
0.0
40
2.0000
0
CIRCLE
8
MARK
10
15.0000
20
430.0000
30
0.0
40
2.0000
0
LINE
8
CUT
10
117.5000
20
150.0000
30
0.0
11
282.5000
21
150.0000
31
0.0
0
LINE
8
CUT
10
282.5000
20
150.0000
30
0.0
11
282.5000
21
450.0000
31
0.0
0
LINE
8
CUT
10
282.5000
20
450.0000
30
0.0
11
117.5000
21
450.0000
31
0.0
0
LINE
8
CUT
10
117.5000
20
450.0000
30
0.0
11
117.5000
21
150.0000
31
0.0
0
LINE
8
MARK
10
279.5000
20
150.0000
30
0.0
11
279.5000
21
450.0000
31
0.0
0
LINE
8
MARK
10
132.5000
20
150.0000
30
0.0
11
132.5000
21
450.0000
31
0.0
0
LINE
8
MARK
10
189.0000
20
180.0000
30
0.0
11
189.0000
21
420.0000
31
0.0
0
LINE
8
CUT
10
-270.0000
20
-220.0000
30
0.0
11
30.0000
21
-220.0000
31
0.0
0
LINE
8
CUT
10
30.0000
20
-220.0000
30
0.0
11
30.0000
21
80.0000
31
0.0
0
LINE
8
CUT
10
30.0000
20
80.0000
30
0.0
11
-270.0000
21
80.0000
31
0.0
0
LINE
8
CUT
10
-270.0000
20
80.0000
30
0.0
11
-270.0000
21
-220.0000
31
0.0
0
LINE
8
MARK
10
-253.0000
20
-198.0000
30
0.0
11
-227.0000
21
-198.0000
31
0.0
0
LINE
8
MARK
10
-227.0000
20
-198.0000
30
0.0
11
-227.0000
21
-182.0000
31
0.0
0
LINE
8
MARK
10
-227.0000
20
-182.0000
30
0.0
11
-253.0000
21
-182.0000
31
0.0
0
LINE
8
MARK
10
-253.0000
20
-182.0000
30
0.0
11
-253.0000
21
-198.0000
31
0.0
0
LINE
8
MARK
10
-253.0000
20
42.0000
30
0.0
11
-227.0000
21
42.0000
31
0.0
0
LINE
8
MARK
10
-227.0000
20
42.0000
30
0.0
11
-227.0000
21
58.0000
31
0.0
0
LINE
8
MARK
10
-227.0000
20
58.0000
30
0.0
11
-253.0000
21
58.0000
31
0.0
0
LINE
8
MARK
10
-253.0000
20
58.0000
30
0.0
11
-253.0000
21
42.0000
31
0.0
0
LINE
8
MARK
10
-13.0000
20
-198.0000
30
0.0
11
13.0000
21
-198.0000
31
0.0
0
LINE
8
MARK
10
13.0000
20
-198.0000
30
0.0
11
13.0000
21
-182.0000
31
0.0
0
LINE
8
MARK
10
13.0000
20
-182.0000
30
0.0
11
-13.0000
21
-182.0000
31
0.0
0
LINE
8
MARK
10
-13.0000
20
-182.0000
30
0.0
11
-13.0000
21
-198.0000
31
0.0
0
LINE
8
MARK
10
-13.0000
20
42.0000
30
0.0
11
13.0000
21
42.0000
31
0.0
0
LINE
8
MARK
10
13.0000
20
42.0000
30
0.0
11
13.0000
21
58.0000
31
0.0
0
LINE
8
MARK
10
13.0000
20
58.0000
30
0.0
11
-13.0000
21
58.0000
31
0.0
0
LINE
8
MARK
10
-13.0000
20
58.0000
30
0.0
11
-13.0000
21
42.0000
31
0.0
0
LINE
8
CUT
10
50.0000
20
-152.5000
30
0.0
11
350.0000
21
-152.5000
31
0.0
0
LINE
8
CUT
10
350.0000
20
-152.5000
30
0.0
11
350.0000
21
12.5000
31
0.0
0
LINE
8
CUT
10
350.0000
20
12.5000
30
0.0
11
50.0000
21
12.5000
31
0.0
0
LINE
8
CUT
10
50.0000
20
12.5000
30
0.0
11
50.0000
21
-152.5000
31
0.0
0
LINE
8
REF
10
50.0000
20
9.5000
30
0.0
11
350.0000
21
9.5000
31
0.0
0
ENDSEC
0
EOF
