<svg xmlns="http://www.w3.org/2000/svg" width="178.0mm" height="86.0mm" viewBox="0 0 178.0 86.0"><rect width="178.0" height="86.0" fill="#ffffff"/><rect x="3.00" y="14.00" width="26.00" height="15.00" rx="1.20" fill="#fdf1f1" stroke="#b32020" stroke-width="0.40"/><text x="16.00" y="20.46" font-family="sans-serif" font-size="3.50" text-anchor="middle" fill="#b32020" font-weight="bold">AC 220 V</text><text x="16.00" y="25.06" font-family="sans-serif" font-size="2.80" text-anchor="middle" fill="#3c4753" font-weight="normal">인입 커넥터</text><rect x="35.00" y="14.00" width="22.00" height="15.00" rx="1.20" fill="#fdf1f1" stroke="#b32020" stroke-width="0.40"/><text x="46.00" y="20.42" font-family="sans-serif" font-size="3.40" text-anchor="middle" fill="#b32020" font-weight="bold">F1 · SPD</text><text x="46.00" y="25.02" font-family="sans-serif" font-size="2.80" text-anchor="middle" fill="#3c4753" font-weight="normal">2 A T / 275 V</text><rect x="63.00" y="14.00" width="30.00" height="15.00" rx="1.20" fill="#e8eef5" stroke="#12395e" stroke-width="0.40"/><text x="78.00" y="20.46" font-family="sans-serif" font-size="3.50" text-anchor="middle" fill="#12395e" font-weight="bold">단자대 8P</text><text x="78.00" y="25.06" font-family="sans-serif" font-size="2.80" text-anchor="middle" fill="#3c4753" font-weight="normal">L · N · PE</text><line x1="29.00" y1="21.50" x2="35.00" y2="21.50" stroke="#12395e" stroke-width="0.50"/><polygon points="35.00,21.50 32.60,22.60 32.60,20.40" fill="#12395e"/><line x1="57.00" y1="21.50" x2="63.00" y2="21.50" stroke="#12395e" stroke-width="0.50"/><polygon points="63.00,21.50 60.60,22.60 60.60,20.40" fill="#12395e"/><rect x="105.00" y="5.00" width="32.00" height="15.00" rx="1.20" fill="#fdf3e0" stroke="#c99a3a" stroke-width="0.40"/><text x="121.00" y="11.46" font-family="sans-serif" font-size="3.50" text-anchor="middle" fill="#8a5a00" font-weight="bold">SMPS</text><text x="121.00" y="16.06" font-family="sans-serif" font-size="2.80" text-anchor="middle" fill="#3c4753" font-weight="normal">220 V → 12 V 60 W</text><rect x="105.00" y="29.00" width="32.00" height="15.00" rx="1.20" fill="#fdf1f1" stroke="#b32020" stroke-width="0.40"/><text x="121.00" y="35.46" font-family="sans-serif" font-size="3.50" text-anchor="middle" fill="#b32020" font-weight="bold">콘센트 1구</text><text x="121.00" y="40.06" font-family="sans-serif" font-size="2.80" text-anchor="middle" fill="#3c4753" font-weight="normal">220 V</text><line x1="93.00" y1="21.50" x2="105.00" y2="12.50" stroke="#12395e" stroke-width="0.50"/><polygon points="105.00,12.50 103.74,14.82 102.42,13.06" fill="#12395e"/><line x1="93.00" y1="21.50" x2="105.00" y2="36.50" stroke="#12395e" stroke-width="0.50"/><polygon points="105.00,36.50 102.64,35.31 104.36,33.94" fill="#12395e"/><rect x="145.00" y="5.00" width="30.00" height="15.00" rx="1.20" fill="#ffffff" stroke="#12395e" stroke-width="0.40"/><text x="160.00" y="11.42" font-family="sans-serif" font-size="3.40" text-anchor="middle" fill="#12395e" font-weight="bold">센서 3대</text><text x="160.00" y="16.02" font-family="sans-serif" font-size="2.80" text-anchor="middle" fill="#3c4753" font-weight="normal">12 V · 약 0.1 A</text><rect x="145.00" y="29.00" width="30.00" height="15.00" rx="1.20" fill="#ffffff" stroke="#12395e" stroke-width="0.40"/><text x="160.00" y="35.42" font-family="sans-serif" font-size="3.40" text-anchor="middle" fill="#12395e" font-weight="bold">파이 어댑터</text><text x="160.00" y="40.02" font-family="sans-serif" font-size="2.80" text-anchor="middle" fill="#3c4753" font-weight="normal">5.1 V 3 A</text><line x1="137.00" y1="12.50" x2="145.00" y2="12.50" stroke="#12395e" stroke-width="0.50"/><polygon points="145.00,12.50 142.60,13.60 142.60,11.40" fill="#12395e"/><line x1="137.00" y1="36.50" x2="145.00" y2="36.50" stroke="#12395e" stroke-width="0.50"/><polygon points="145.00,36.50 142.60,37.60 142.60,35.40" fill="#12395e"/><rect x="145.00" y="50.00" width="30.00" height="13.00" rx="1.20" fill="#ffffff" stroke="#12395e" stroke-width="0.40"/><text x="160.00" y="55.39" font-family="sans-serif" font-size="3.30" text-anchor="middle" fill="#12395e" font-weight="bold">파이 4 + LCD</text><text x="160.00" y="59.99" font-family="sans-serif" font-size="2.70" text-anchor="middle" fill="#3c4753" font-weight="normal">약 10 W</text><line x1="160.00" y1="44.00" x2="160.00" y2="50.00" stroke="#12395e" stroke-width="0.50"/><polygon points="160.00,50.00 158.90,47.60 161.10,47.60" fill="#12395e"/><line x1="121.00" y1="20.00" x2="121.00" y2="29.00" stroke="#1c5c1c" stroke-width="0.60" stroke-dasharray="2,1.2"/><text x="123.00" y="25.50" font-family="sans-serif" font-size="3.00" text-anchor="start" fill="#1c5c1c" font-weight="bold">LK1  0 V 본딩</text><rect x="3.00" y="70.00" width="172.00" height="13.00" rx="1.20" fill="#fdf1f1" stroke="#b32020" stroke-width="0.40"/><text x="6.00" y="75.00" font-family="sans-serif" font-size="3.00" text-anchor="start" fill="#b32020" font-weight="bold">★ SMPS 의 0 V 와 파이 어댑터 계통은 서로 절연된 별개 전원이다. LK1 로 묶지 않으면</text><text x="6.00" y="79.60" font-family="sans-serif" font-size="3.00" text-anchor="start" fill="#b32020" font-weight="normal">   RS485 공통모드가 벗어나 통신이 간헐적으로 끊긴다 — 통전 검사로는 잡히지 않는다.</text></svg>
