# Shrimp365 수질 모니터링 장비 함체 — 기성품 조립 모델
# 단위 mm.  X 좌우 / Y 상하 / Z 앞뒤(0=후면, 165=도어)
mtllib enclosure.mtl

g enclosure_base
usemtl enclosure_base
v -150.000 0.000 0.000
v 150.000 0.000 0.000
v 150.000 300.000 0.000
v -150.000 300.000 0.000
v -150.000 0.000 3.000
v 150.000 0.000 3.000
v 150.000 300.000 3.000
v -150.000 300.000 3.000
v -150.000 0.000 3.000
v -147.000 0.000 3.000
v -147.000 300.000 3.000
v -150.000 300.000 3.000
v -150.000 0.000 162.000
v -147.000 0.000 162.000
v -147.000 300.000 162.000
v -150.000 300.000 162.000
v 147.000 0.000 3.000
v 150.000 0.000 3.000
v 150.000 300.000 3.000
v 147.000 300.000 3.000
v 147.000 0.000 162.000
v 150.000 0.000 162.000
v 150.000 300.000 162.000
v 147.000 300.000 162.000
v -147.000 0.000 3.000
v 147.000 0.000 3.000
v 147.000 3.000 3.000
v -147.000 3.000 3.000
v -147.000 0.000 162.000
v 147.000 0.000 162.000
v 147.000 3.000 162.000
v -147.000 3.000 162.000
v -147.000 297.000 3.000
v 147.000 297.000 3.000
v 147.000 300.000 3.000
v -147.000 300.000 3.000
v -147.000 297.000 162.000
v 147.000 297.000 162.000
v 147.000 300.000 162.000
v -147.000 300.000 162.000
f 1 3 2
f 1 4 3
f 5 6 7
f 5 7 8
f 1 2 6
f 1 6 5
f 4 8 7
f 4 7 3
f 1 5 8
f 1 8 4
f 2 3 7
f 2 7 6
f 9 11 10
f 9 12 11
f 13 14 15
f 13 15 16
f 9 10 14
f 9 14 13
f 12 16 15
f 12 15 11
f 9 13 16
f 9 16 12
f 10 11 15
f 10 15 14
f 17 19 18
f 17 20 19
f 21 22 23
f 21 23 24
f 17 18 22
f 17 22 21
f 20 24 23
f 20 23 19
f 17 21 24
f 17 24 20
f 18 19 23
f 18 23 22
f 25 27 26
f 25 28 27
f 29 30 31
f 29 31 32
f 25 26 30
f 25 30 29
f 28 32 31
f 28 31 27
f 25 29 32
f 25 32 28
f 26 27 31
f 26 31 30
f 33 35 34
f 33 36 35
f 37 38 39
f 37 39 40
f 33 34 38
f 33 38 37
f 36 40 39
f 36 39 35
f 33 37 40
f 33 40 36
f 34 35 39
f 34 39 38

g door
usemtl door
v -150.000 197.000 162.000
v 150.000 197.000 162.000
v 150.000 300.000 162.000
v -150.000 300.000 162.000
v -150.000 197.000 165.000
v 150.000 197.000 165.000
v 150.000 300.000 165.000
v -150.000 300.000 165.000
v -150.000 0.000 162.000
v 150.000 0.000 162.000
v 150.000 103.000 162.000
v -150.000 103.000 162.000
v -150.000 0.000 165.000
v 150.000 0.000 165.000
v 150.000 103.000 165.000
v -150.000 103.000 165.000
v -150.000 103.000 162.000
v -88.000 103.000 162.000
v -88.000 197.000 162.000
v -150.000 197.000 162.000
v -150.000 103.000 165.000
v -88.000 103.000 165.000
v -88.000 197.000 165.000
v -150.000 197.000 165.000
v 88.000 103.000 162.000
v 150.000 103.000 162.000
v 150.000 197.000 162.000
v 88.000 197.000 162.000
v 88.000 103.000 165.000
v 150.000 103.000 165.000
v 150.000 197.000 165.000
v 88.000 197.000 165.000
f 41 43 42
f 41 44 43
f 45 46 47
f 45 47 48
f 41 42 46
f 41 46 45
f 44 48 47
f 44 47 43
f 41 45 48
f 41 48 44
f 42 43 47
f 42 47 46
f 49 51 50
f 49 52 51
f 53 54 55
f 53 55 56
f 49 50 54
f 49 54 53
f 52 56 55
f 52 55 51
f 49 53 56
f 49 56 52
f 50 51 55
f 50 55 54
f 57 59 58
f 57 60 59
f 61 62 63
f 61 63 64
f 57 58 62
f 57 62 61
f 60 64 63
f 60 63 59
f 57 61 64
f 57 64 60
f 58 59 63
f 58 63 62
f 65 67 66
f 65 68 67
f 69 70 71
f 69 71 72
f 65 66 70
f 65 70 69
f 68 72 71
f 68 71 67
f 65 69 72
f 65 72 68
f 66 67 71
f 66 71 70

g gasket
usemtl gasket
v -93.000 197.000 160.000
v 93.000 197.000 160.000
v 93.000 202.000 160.000
v -93.000 202.000 160.000
v -93.000 197.000 162.000
v 93.000 197.000 162.000
v 93.000 202.000 162.000
v -93.000 202.000 162.000
v -93.000 98.000 160.000
v 93.000 98.000 160.000
v 93.000 103.000 160.000
v -93.000 103.000 160.000
v -93.000 98.000 162.000
v 93.000 98.000 162.000
v 93.000 103.000 162.000
v -93.000 103.000 162.000
v -93.000 103.000 160.000
v -88.000 103.000 160.000
v -88.000 197.000 160.000
v -93.000 197.000 160.000
v -93.000 103.000 162.000
v -88.000 103.000 162.000
v -88.000 197.000 162.000
v -93.000 197.000 162.000
v 88.000 103.000 160.000
v 93.000 103.000 160.000
v 93.000 197.000 160.000
v 88.000 197.000 160.000
v 88.000 103.000 162.000
v 93.000 103.000 162.000
v 93.000 197.000 162.000
v 88.000 197.000 162.000
f 73 75 74
f 73 76 75
f 77 78 79
f 77 79 80
f 73 74 78
f 73 78 77
f 76 80 79
f 76 79 75
f 73 77 80
f 73 80 76
f 74 75 79
f 74 79 78
f 81 83 82
f 81 84 83
f 85 86 87
f 85 87 88
f 81 82 86
f 81 86 85
f 84 88 87
f 84 87 83
f 81 85 88
f 81 88 84
f 82 83 87
f 82 87 86
f 89 91 90
f 89 92 91
f 93 94 95
f 93 95 96
f 89 90 94
f 89 94 93
f 92 96 95
f 92 95 91
f 89 93 96
f 89 96 92
f 90 91 95
f 90 95 94
f 97 99 98
f 97 100 99
f 101 102 103
f 101 103 104
f 97 98 102
f 97 102 101
f 100 104 103
f 100 103 99
f 97 101 104
f 97 104 100
f 98 99 103
f 98 103 102

g display_7in
usemtl display_7in
v -97.000 94.500 140.000
v 97.000 94.500 140.000
v 97.000 205.500 140.000
v -97.000 205.500 140.000
v -97.000 94.500 160.000
v 97.000 94.500 160.000
v 97.000 205.500 160.000
v -97.000 205.500 160.000
f 105 107 106
f 105 108 107
f 109 110 111
f 109 111 112
f 105 106 110
f 105 110 109
f 108 112 111
f 108 111 107
f 105 109 112
f 105 112 108
f 106 107 111
f 106 111 110

g display_active_area
usemtl display_active_area
v -77.500 107.000 160.000
v 77.500 107.000 160.000
v 77.500 193.000 160.000
v -77.500 193.000 160.000
v -77.500 107.000 160.400
v 77.500 107.000 160.400
v 77.500 193.000 160.400
v -77.500 193.000 160.400
f 113 115 114
f 113 116 115
f 117 118 119
f 117 119 120
f 113 114 118
f 113 118 117
f 116 120 119
f 116 119 115
f 113 117 120
f 113 120 116
f 114 115 119
f 114 119 118

g press_frame
usemtl press_frame
v -112.000 197.500 137.000
v 112.000 197.500 137.000
v 112.000 220.500 137.000
v -112.000 220.500 137.000
v -112.000 197.500 140.000
v 112.000 197.500 140.000
v 112.000 220.500 140.000
v -112.000 220.500 140.000
v -112.000 79.500 137.000
v 112.000 79.500 137.000
v 112.000 102.500 137.000
v -112.000 102.500 137.000
v -112.000 79.500 140.000
v 112.000 79.500 140.000
v 112.000 102.500 140.000
v -112.000 102.500 140.000
v -112.000 102.500 137.000
v -89.000 102.500 137.000
v -89.000 197.500 137.000
v -112.000 197.500 137.000
v -112.000 102.500 140.000
v -89.000 102.500 140.000
v -89.000 197.500 140.000
v -112.000 197.500 140.000
v 89.000 102.500 137.000
v 112.000 102.500 137.000
v 112.000 197.500 137.000
v 89.000 197.500 137.000
v 89.000 102.500 140.000
v 112.000 102.500 140.000
v 112.000 197.500 140.000
v 89.000 197.500 140.000
f 121 123 122
f 121 124 123
f 125 126 127
f 125 127 128
f 121 122 126
f 121 126 125
f 124 128 127
f 124 127 123
f 121 125 128
f 121 128 124
f 122 123 127
f 122 127 126
f 129 131 130
f 129 132 131
f 133 134 135
f 133 135 136
f 129 130 134
f 129 134 133
f 132 136 135
f 132 135 131
f 129 133 136
f 129 136 132
f 130 131 135
f 130 135 134
f 137 139 138
f 137 140 139
f 141 142 143
f 141 143 144
f 137 138 142
f 137 142 141
f 140 144 143
f 140 143 139
f 137 141 144
f 137 144 140
f 138 139 143
f 138 143 142
f 145 147 146
f 145 148 147
f 149 150 151
f 149 151 152
f 145 146 150
f 145 150 149
f 148 152 151
f 148 151 147
f 145 149 152
f 145 152 148
f 146 147 151
f 146 151 150

g door_bolt_TR_SUS316
usemtl door_bolt_TR_SUS316
v -131.000 20.000 164.500
v -131.000 20.000 167.000
v -131.196 21.236 164.500
v -131.196 21.236 167.000
v -131.764 22.351 164.500
v -131.764 22.351 167.000
v -132.649 23.236 164.500
v -132.649 23.236 167.000
v -133.764 23.804 164.500
v -133.764 23.804 167.000
v -135.000 24.000 164.500
v -135.000 24.000 167.000
v -136.236 23.804 164.500
v -136.236 23.804 167.000
v -137.351 23.236 164.500
v -137.351 23.236 167.000
v -138.236 22.351 164.500
v -138.236 22.351 167.000
v -138.804 21.236 164.500
v -138.804 21.236 167.000
v -139.000 20.000 164.500
v -139.000 20.000 167.000
v -138.804 18.764 164.500
v -138.804 18.764 167.000
v -138.236 17.649 164.500
v -138.236 17.649 167.000
v -137.351 16.764 164.500
v -137.351 16.764 167.000
v -136.236 16.196 164.500
v -136.236 16.196 167.000
v -135.000 16.000 164.500
v -135.000 16.000 167.000
v -133.764 16.196 164.500
v -133.764 16.196 167.000
v -132.649 16.764 164.500
v -132.649 16.764 167.000
v -131.764 17.649 164.500
v -131.764 17.649 167.000
v -131.196 18.764 164.500
v -131.196 18.764 167.000
v -135.000 20.000 164.500
v -135.000 20.000 167.000
v -131.000 150.000 164.500
v -131.000 150.000 167.000
v -131.196 151.236 164.500
v -131.196 151.236 167.000
v -131.764 152.351 164.500
v -131.764 152.351 167.000
v -132.649 153.236 164.500
v -132.649 153.236 167.000
v -133.764 153.804 164.500
v -133.764 153.804 167.000
v -135.000 154.000 164.500
v -135.000 154.000 167.000
v -136.236 153.804 164.500
v -136.236 153.804 167.000
v -137.351 153.236 164.500
v -137.351 153.236 167.000
v -138.236 152.351 164.500
v -138.236 152.351 167.000
v -138.804 151.236 164.500
v -138.804 151.236 167.000
v -139.000 150.000 164.500
v -139.000 150.000 167.000
v -138.804 148.764 164.500
v -138.804 148.764 167.000
v -138.236 147.649 164.500
v -138.236 147.649 167.000
v -137.351 146.764 164.500
v -137.351 146.764 167.000
v -136.236 146.196 164.500
v -136.236 146.196 167.000
v -135.000 146.000 164.500
v -135.000 146.000 167.000
v -133.764 146.196 164.500
v -133.764 146.196 167.000
v -132.649 146.764 164.500
v -132.649 146.764 167.000
v -131.764 147.649 164.500
v -131.764 147.649 167.000
v -131.196 148.764 164.500
v -131.196 148.764 167.000
v -135.000 150.000 164.500
v -135.000 150.000 167.000
v -131.000 280.000 164.500
v -131.000 280.000 167.000
v -131.196 281.236 164.500
v -131.196 281.236 167.000
v -131.764 282.351 164.500
v -131.764 282.351 167.000
v -132.649 283.236 164.500
v -132.649 283.236 167.000
v -133.764 283.804 164.500
v -133.764 283.804 167.000
v -135.000 284.000 164.500
v -135.000 284.000 167.000
v -136.236 283.804 164.500
v -136.236 283.804 167.000
v -137.351 283.236 164.500
v -137.351 283.236 167.000
v -138.236 282.351 164.500
v -138.236 282.351 167.000
v -138.804 281.236 164.500
v -138.804 281.236 167.000
v -139.000 280.000 164.500
v -139.000 280.000 167.000
v -138.804 278.764 164.500
v -138.804 278.764 167.000
v -138.236 277.649 164.500
v -138.236 277.649 167.000
v -137.351 276.764 164.500
v -137.351 276.764 167.000
v -136.236 276.196 164.500
v -136.236 276.196 167.000
v -135.000 276.000 164.500
v -135.000 276.000 167.000
v -133.764 276.196 164.500
v -133.764 276.196 167.000
v -132.649 276.764 164.500
v -132.649 276.764 167.000
v -131.764 277.649 164.500
v -131.764 277.649 167.000
v -131.196 278.764 164.500
v -131.196 278.764 167.000
v -135.000 280.000 164.500
v -135.000 280.000 167.000
v 139.000 20.000 164.500
v 139.000 20.000 167.000
v 138.804 21.236 164.500
v 138.804 21.236 167.000
v 138.236 22.351 164.500
v 138.236 22.351 167.000
v 137.351 23.236 164.500
v 137.351 23.236 167.000
v 136.236 23.804 164.500
v 136.236 23.804 167.000
v 135.000 24.000 164.500
v 135.000 24.000 167.000
v 133.764 23.804 164.500
v 133.764 23.804 167.000
v 132.649 23.236 164.500
v 132.649 23.236 167.000
v 131.764 22.351 164.500
v 131.764 22.351 167.000
v 131.196 21.236 164.500
v 131.196 21.236 167.000
v 131.000 20.000 164.500
v 131.000 20.000 167.000
v 131.196 18.764 164.500
v 131.196 18.764 167.000
v 131.764 17.649 164.500
v 131.764 17.649 167.000
v 132.649 16.764 164.500
v 132.649 16.764 167.000
v 133.764 16.196 164.500
v 133.764 16.196 167.000
v 135.000 16.000 164.500
v 135.000 16.000 167.000
v 136.236 16.196 164.500
v 136.236 16.196 167.000
v 137.351 16.764 164.500
v 137.351 16.764 167.000
v 138.236 17.649 164.500
v 138.236 17.649 167.000
v 138.804 18.764 164.500
v 138.804 18.764 167.000
v 135.000 20.000 164.500
v 135.000 20.000 167.000
v 139.000 150.000 164.500
v 139.000 150.000 167.000
v 138.804 151.236 164.500
v 138.804 151.236 167.000
v 138.236 152.351 164.500
v 138.236 152.351 167.000
v 137.351 153.236 164.500
v 137.351 153.236 167.000
v 136.236 153.804 164.500
v 136.236 153.804 167.000
v 135.000 154.000 164.500
v 135.000 154.000 167.000
v 133.764 153.804 164.500
v 133.764 153.804 167.000
v 132.649 153.236 164.500
v 132.649 153.236 167.000
v 131.764 152.351 164.500
v 131.764 152.351 167.000
v 131.196 151.236 164.500
v 131.196 151.236 167.000
v 131.000 150.000 164.500
v 131.000 150.000 167.000
v 131.196 148.764 164.500
v 131.196 148.764 167.000
v 131.764 147.649 164.500
v 131.764 147.649 167.000
v 132.649 146.764 164.500
v 132.649 146.764 167.000
v 133.764 146.196 164.500
v 133.764 146.196 167.000
v 135.000 146.000 164.500
v 135.000 146.000 167.000
v 136.236 146.196 164.500
v 136.236 146.196 167.000
v 137.351 146.764 164.500
v 137.351 146.764 167.000
v 138.236 147.649 164.500
v 138.236 147.649 167.000
v 138.804 148.764 164.500
v 138.804 148.764 167.000
v 135.000 150.000 164.500
v 135.000 150.000 167.000
v 139.000 280.000 164.500
v 139.000 280.000 167.000
v 138.804 281.236 164.500
v 138.804 281.236 167.000
v 138.236 282.351 164.500
v 138.236 282.351 167.000
v 137.351 283.236 164.500
v 137.351 283.236 167.000
v 136.236 283.804 164.500
v 136.236 283.804 167.000
v 135.000 284.000 164.500
v 135.000 284.000 167.000
v 133.764 283.804 164.500
v 133.764 283.804 167.000
v 132.649 283.236 164.500
v 132.649 283.236 167.000
v 131.764 282.351 164.500
v 131.764 282.351 167.000
v 131.196 281.236 164.500
v 131.196 281.236 167.000
v 131.000 280.000 164.500
v 131.000 280.000 167.000
v 131.196 278.764 164.500
v 131.196 278.764 167.000
v 131.764 277.649 164.500
v 131.764 277.649 167.000
v 132.649 276.764 164.500
v 132.649 276.764 167.000
v 133.764 276.196 164.500
v 133.764 276.196 167.000
v 135.000 276.000 164.500
v 135.000 276.000 167.000
v 136.236 276.196 164.500
v 136.236 276.196 167.000
v 137.351 276.764 164.500
v 137.351 276.764 167.000
v 138.236 277.649 164.500
v 138.236 277.649 167.000
v 138.804 278.764 164.500
v 138.804 278.764 167.000
v 135.000 280.000 164.500
v 135.000 280.000 167.000
f 153 155 156
f 153 156 154
f 155 157 158
f 155 158 156
f 157 159 160
f 157 160 158
f 159 161 162
f 159 162 160
f 161 163 164
f 161 164 162
f 163 165 166
f 163 166 164
f 165 167 168
f 165 168 166
f 167 169 170
f 167 170 168
f 169 171 172
f 169 172 170
f 171 173 174
f 171 174 172
f 173 175 176
f 173 176 174
f 175 177 178
f 175 178 176
f 177 179 180
f 177 180 178
f 179 181 182
f 179 182 180
f 181 183 184
f 181 184 182
f 183 185 186
f 183 186 184
f 185 187 188
f 185 188 186
f 187 189 190
f 187 190 188
f 189 191 192
f 189 192 190
f 191 153 154
f 191 154 192
f 193 155 153
f 194 154 156
f 193 157 155
f 194 156 158
f 193 159 157
f 194 158 160
f 193 161 159
f 194 160 162
f 193 163 161
f 194 162 164
f 193 165 163
f 194 164 166
f 193 167 165
f 194 166 168
f 193 169 167
f 194 168 170
f 193 171 169
f 194 170 172
f 193 173 171
f 194 172 174
f 193 175 173
f 194 174 176
f 193 177 175
f 194 176 178
f 193 179 177
f 194 178 180
f 193 181 179
f 194 180 182
f 193 183 181
f 194 182 184
f 193 185 183
f 194 184 186
f 193 187 185
f 194 186 188
f 193 189 187
f 194 188 190
f 193 191 189
f 194 190 192
f 193 153 191
f 194 192 154
f 195 197 198
f 195 198 196
f 197 199 200
f 197 200 198
f 199 201 202
f 199 202 200
f 201 203 204
f 201 204 202
f 203 205 206
f 203 206 204
f 205 207 208
f 205 208 206
f 207 209 210
f 207 210 208
f 209 211 212
f 209 212 210
f 211 213 214
f 211 214 212
f 213 215 216
f 213 216 214
f 215 217 218
f 215 218 216
f 217 219 220
f 217 220 218
f 219 221 222
f 219 222 220
f 221 223 224
f 221 224 222
f 223 225 226
f 223 226 224
f 225 227 228
f 225 228 226
f 227 229 230
f 227 230 228
f 229 231 232
f 229 232 230
f 231 233 234
f 231 234 232
f 233 195 196
f 233 196 234
f 235 197 195
f 236 196 198
f 235 199 197
f 236 198 200
f 235 201 199
f 236 200 202
f 235 203 201
f 236 202 204
f 235 205 203
f 236 204 206
f 235 207 205
f 236 206 208
f 235 209 207
f 236 208 210
f 235 211 209
f 236 210 212
f 235 213 211
f 236 212 214
f 235 215 213
f 236 214 216
f 235 217 215
f 236 216 218
f 235 219 217
f 236 218 220
f 235 221 219
f 236 220 222
f 235 223 221
f 236 222 224
f 235 225 223
f 236 224 226
f 235 227 225
f 236 226 228
f 235 229 227
f 236 228 230
f 235 231 229
f 236 230 232
f 235 233 231
f 236 232 234
f 235 195 233
f 236 234 196
f 237 239 240
f 237 240 238
f 239 241 242
f 239 242 240
f 241 243 244
f 241 244 242
f 243 245 246
f 243 246 244
f 245 247 248
f 245 248 246
f 247 249 250
f 247 250 248
f 249 251 252
f 249 252 250
f 251 253 254
f 251 254 252
f 253 255 256
f 253 256 254
f 255 257 258
f 255 258 256
f 257 259 260
f 257 260 258
f 259 261 262
f 259 262 260
f 261 263 264
f 261 264 262
f 263 265 266
f 263 266 264
f 265 267 268
f 265 268 266
f 267 269 270
f 267 270 268
f 269 271 272
f 269 272 270
f 271 273 274
f 271 274 272
f 273 275 276
f 273 276 274
f 275 237 238
f 275 238 276
f 277 239 237
f 278 238 240
f 277 241 239
f 278 240 242
f 277 243 241
f 278 242 244
f 277 245 243
f 278 244 246
f 277 247 245
f 278 246 248
f 277 249 247
f 278 248 250
f 277 251 249
f 278 250 252
f 277 253 251
f 278 252 254
f 277 255 253
f 278 254 256
f 277 257 255
f 278 256 258
f 277 259 257
f 278 258 260
f 277 261 259
f 278 260 262
f 277 263 261
f 278 262 264
f 277 265 263
f 278 264 266
f 277 267 265
f 278 266 268
f 277 269 267
f 278 268 270
f 277 271 269
f 278 270 272
f 277 273 271
f 278 272 274
f 277 275 273
f 278 274 276
f 277 237 275
f 278 276 238
f 279 281 282
f 279 282 280
f 281 283 284
f 281 284 282
f 283 285 286
f 283 286 284
f 285 287 288
f 285 288 286
f 287 289 290
f 287 290 288
f 289 291 292
f 289 292 290
f 291 293 294
f 291 294 292
f 293 295 296
f 293 296 294
f 295 297 298
f 295 298 296
f 297 299 300
f 297 300 298
f 299 301 302
f 299 302 300
f 301 303 304
f 301 304 302
f 303 305 306
f 303 306 304
f 305 307 308
f 305 308 306
f 307 309 310
f 307 310 308
f 309 311 312
f 309 312 310
f 311 313 314
f 311 314 312
f 313 315 316
f 313 316 314
f 315 317 318
f 315 318 316
f 317 279 280
f 317 280 318
f 319 281 279
f 320 280 282
f 319 283 281
f 320 282 284
f 319 285 283
f 320 284 286
f 319 287 285
f 320 286 288
f 319 289 287
f 320 288 290
f 319 291 289
f 320 290 292
f 319 293 291
f 320 292 294
f 319 295 293
f 320 294 296
f 319 297 295
f 320 296 298
f 319 299 297
f 320 298 300
f 319 301 299
f 320 300 302
f 319 303 301
f 320 302 304
f 319 305 303
f 320 304 306
f 319 307 305
f 320 306 308
f 319 309 307
f 320 308 310
f 319 311 309
f 320 310 312
f 319 313 311
f 320 312 314
f 319 315 313
f 320 314 316
f 319 317 315
f 320 316 318
f 319 279 317
f 320 318 280
f 321 323 324
f 321 324 322
f 323 325 326
f 323 326 324
f 325 327 328
f 325 328 326
f 327 329 330
f 327 330 328
f 329 331 332
f 329 332 330
f 331 333 334
f 331 334 332
f 333 335 336
f 333 336 334
f 335 337 338
f 335 338 336
f 337 339 340
f 337 340 338
f 339 341 342
f 339 342 340
f 341 343 344
f 341 344 342
f 343 345 346
f 343 346 344
f 345 347 348
f 345 348 346
f 347 349 350
f 347 350 348
f 349 351 352
f 349 352 350
f 351 353 354
f 351 354 352
f 353 355 356
f 353 356 354
f 355 357 358
f 355 358 356
f 357 359 360
f 357 360 358
f 359 321 322
f 359 322 360
f 361 323 321
f 362 322 324
f 361 325 323
f 362 324 326
f 361 327 325
f 362 326 328
f 361 329 327
f 362 328 330
f 361 331 329
f 362 330 332
f 361 333 331
f 362 332 334
f 361 335 333
f 362 334 336
f 361 337 335
f 362 336 338
f 361 339 337
f 362 338 340
f 361 341 339
f 362 340 342
f 361 343 341
f 362 342 344
f 361 345 343
f 362 344 346
f 361 347 345
f 362 346 348
f 361 349 347
f 362 348 350
f 361 351 349
f 362 350 352
f 361 353 351
f 362 352 354
f 361 355 353
f 362 354 356
f 361 357 355
f 362 356 358
f 361 359 357
f 362 358 360
f 361 321 359
f 362 360 322
f 363 365 366
f 363 366 364
f 365 367 368
f 365 368 366
f 367 369 370
f 367 370 368
f 369 371 372
f 369 372 370
f 371 373 374
f 371 374 372
f 373 375 376
f 373 376 374
f 375 377 378
f 375 378 376
f 377 379 380
f 377 380 378
f 379 381 382
f 379 382 380
f 381 383 384
f 381 384 382
f 383 385 386
f 383 386 384
f 385 387 388
f 385 388 386
f 387 389 390
f 387 390 388
f 389 391 392
f 389 392 390
f 391 393 394
f 391 394 392
f 393 395 396
f 393 396 394
f 395 397 398
f 395 398 396
f 397 399 400
f 397 400 398
f 399 401 402
f 399 402 400
f 401 363 364
f 401 364 402
f 403 365 363
f 404 364 366
f 403 367 365
f 404 366 368
f 403 369 367
f 404 368 370
f 403 371 369
f 404 370 372
f 403 373 371
f 404 372 374
f 403 375 373
f 404 374 376
f 403 377 375
f 404 376 378
f 403 379 377
f 404 378 380
f 403 381 379
f 404 380 382
f 403 383 381
f 404 382 384
f 403 385 383
f 404 384 386
f 403 387 385
f 404 386 388
f 403 389 387
f 404 388 390
f 403 391 389
f 404 390 392
f 403 393 391
f 404 392 394
f 403 395 393
f 404 394 396
f 403 397 395
f 404 396 398
f 403 399 397
f 404 398 400
f 403 401 399
f 404 400 402
f 403 363 401
f 404 402 364

g standoff_M3
usemtl standoff_M3
v -101.000 86.500 137.000
v -101.000 86.500 162.000
v -101.196 87.736 137.000
v -101.196 87.736 162.000
v -101.764 88.851 137.000
v -101.764 88.851 162.000
v -102.649 89.736 137.000
v -102.649 89.736 162.000
v -103.764 90.304 137.000
v -103.764 90.304 162.000
v -105.000 90.500 137.000
v -105.000 90.500 162.000
v -106.236 90.304 137.000
v -106.236 90.304 162.000
v -107.351 89.736 137.000
v -107.351 89.736 162.000
v -108.236 88.851 137.000
v -108.236 88.851 162.000
v -108.804 87.736 137.000
v -108.804 87.736 162.000
v -109.000 86.500 137.000
v -109.000 86.500 162.000
v -108.804 85.264 137.000
v -108.804 85.264 162.000
v -108.236 84.149 137.000
v -108.236 84.149 162.000
v -107.351 83.264 137.000
v -107.351 83.264 162.000
v -106.236 82.696 137.000
v -106.236 82.696 162.000
v -105.000 82.500 137.000
v -105.000 82.500 162.000
v -103.764 82.696 137.000
v -103.764 82.696 162.000
v -102.649 83.264 137.000
v -102.649 83.264 162.000
v -101.764 84.149 137.000
v -101.764 84.149 162.000
v -101.196 85.264 137.000
v -101.196 85.264 162.000
v -105.000 86.500 137.000
v -105.000 86.500 162.000
v -101.000 213.500 137.000
v -101.000 213.500 162.000
v -101.196 214.736 137.000
v -101.196 214.736 162.000
v -101.764 215.851 137.000
v -101.764 215.851 162.000
v -102.649 216.736 137.000
v -102.649 216.736 162.000
v -103.764 217.304 137.000
v -103.764 217.304 162.000
v -105.000 217.500 137.000
v -105.000 217.500 162.000
v -106.236 217.304 137.000
v -106.236 217.304 162.000
v -107.351 216.736 137.000
v -107.351 216.736 162.000
v -108.236 215.851 137.000
v -108.236 215.851 162.000
v -108.804 214.736 137.000
v -108.804 214.736 162.000
v -109.000 213.500 137.000
v -109.000 213.500 162.000
v -108.804 212.264 137.000
v -108.804 212.264 162.000
v -108.236 211.149 137.000
v -108.236 211.149 162.000
v -107.351 210.264 137.000
v -107.351 210.264 162.000
v -106.236 209.696 137.000
v -106.236 209.696 162.000
v -105.000 209.500 137.000
v -105.000 209.500 162.000
v -103.764 209.696 137.000
v -103.764 209.696 162.000
v -102.649 210.264 137.000
v -102.649 210.264 162.000
v -101.764 211.149 137.000
v -101.764 211.149 162.000
v -101.196 212.264 137.000
v -101.196 212.264 162.000
v -105.000 213.500 137.000
v -105.000 213.500 162.000
v 109.000 86.500 137.000
v 109.000 86.500 162.000
v 108.804 87.736 137.000
v 108.804 87.736 162.000
v 108.236 88.851 137.000
v 108.236 88.851 162.000
v 107.351 89.736 137.000
v 107.351 89.736 162.000
v 106.236 90.304 137.000
v 106.236 90.304 162.000
v 105.000 90.500 137.000
v 105.000 90.500 162.000
v 103.764 90.304 137.000
v 103.764 90.304 162.000
v 102.649 89.736 137.000
v 102.649 89.736 162.000
v 101.764 88.851 137.000
v 101.764 88.851 162.000
v 101.196 87.736 137.000
v 101.196 87.736 162.000
v 101.000 86.500 137.000
v 101.000 86.500 162.000
v 101.196 85.264 137.000
v 101.196 85.264 162.000
v 101.764 84.149 137.000
v 101.764 84.149 162.000
v 102.649 83.264 137.000
v 102.649 83.264 162.000
v 103.764 82.696 137.000
v 103.764 82.696 162.000
v 105.000 82.500 137.000
v 105.000 82.500 162.000
v 106.236 82.696 137.000
v 106.236 82.696 162.000
v 107.351 83.264 137.000
v 107.351 83.264 162.000
v 108.236 84.149 137.000
v 108.236 84.149 162.000
v 108.804 85.264 137.000
v 108.804 85.264 162.000
v 105.000 86.500 137.000
v 105.000 86.500 162.000
v 109.000 213.500 137.000
v 109.000 213.500 162.000
v 108.804 214.736 137.000
v 108.804 214.736 162.000
v 108.236 215.851 137.000
v 108.236 215.851 162.000
v 107.351 216.736 137.000
v 107.351 216.736 162.000
v 106.236 217.304 137.000
v 106.236 217.304 162.000
v 105.000 217.500 137.000
v 105.000 217.500 162.000
v 103.764 217.304 137.000
v 103.764 217.304 162.000
v 102.649 216.736 137.000
v 102.649 216.736 162.000
v 101.764 215.851 137.000
v 101.764 215.851 162.000
v 101.196 214.736 137.000
v 101.196 214.736 162.000
v 101.000 213.500 137.000
v 101.000 213.500 162.000
v 101.196 212.264 137.000
v 101.196 212.264 162.000
v 101.764 211.149 137.000
v 101.764 211.149 162.000
v 102.649 210.264 137.000
v 102.649 210.264 162.000
v 103.764 209.696 137.000
v 103.764 209.696 162.000
v 105.000 209.500 137.000
v 105.000 209.500 162.000
v 106.236 209.696 137.000
v 106.236 209.696 162.000
v 107.351 210.264 137.000
v 107.351 210.264 162.000
v 108.236 211.149 137.000
v 108.236 211.149 162.000
v 108.804 212.264 137.000
v 108.804 212.264 162.000
v 105.000 213.500 137.000
v 105.000 213.500 162.000
f 405 407 408
f 405 408 406
f 407 409 410
f 407 410 408
f 409 411 412
f 409 412 410
f 411 413 414
f 411 414 412
f 413 415 416
f 413 416 414
f 415 417 418
f 415 418 416
f 417 419 420
f 417 420 418
f 419 421 422
f 419 422 420
f 421 423 424
f 421 424 422
f 423 425 426
f 423 426 424
f 425 427 428
f 425 428 426
f 427 429 430
f 427 430 428
f 429 431 432
f 429 432 430
f 431 433 434
f 431 434 432
f 433 435 436
f 433 436 434
f 435 437 438
f 435 438 436
f 437 439 440
f 437 440 438
f 439 441 442
f 439 442 440
f 441 443 444
f 441 444 442
f 443 405 406
f 443 406 444
f 445 407 405
f 446 406 408
f 445 409 407
f 446 408 410
f 445 411 409
f 446 410 412
f 445 413 411
f 446 412 414
f 445 415 413
f 446 414 416
f 445 417 415
f 446 416 418
f 445 419 417
f 446 418 420
f 445 421 419
f 446 420 422
f 445 423 421
f 446 422 424
f 445 425 423
f 446 424 426
f 445 427 425
f 446 426 428
f 445 429 427
f 446 428 430
f 445 431 429
f 446 430 432
f 445 433 431
f 446 432 434
f 445 435 433
f 446 434 436
f 445 437 435
f 446 436 438
f 445 439 437
f 446 438 440
f 445 441 439
f 446 440 442
f 445 443 441
f 446 442 444
f 445 405 443
f 446 444 406
f 447 449 450
f 447 450 448
f 449 451 452
f 449 452 450
f 451 453 454
f 451 454 452
f 453 455 456
f 453 456 454
f 455 457 458
f 455 458 456
f 457 459 460
f 457 460 458
f 459 461 462
f 459 462 460
f 461 463 464
f 461 464 462
f 463 465 466
f 463 466 464
f 465 467 468
f 465 468 466
f 467 469 470
f 467 470 468
f 469 471 472
f 469 472 470
f 471 473 474
f 471 474 472
f 473 475 476
f 473 476 474
f 475 477 478
f 475 478 476
f 477 479 480
f 477 480 478
f 479 481 482
f 479 482 480
f 481 483 484
f 481 484 482
f 483 485 486
f 483 486 484
f 485 447 448
f 485 448 486
f 487 449 447
f 488 448 450
f 487 451 449
f 488 450 452
f 487 453 451
f 488 452 454
f 487 455 453
f 488 454 456
f 487 457 455
f 488 456 458
f 487 459 457
f 488 458 460
f 487 461 459
f 488 460 462
f 487 463 461
f 488 462 464
f 487 465 463
f 488 464 466
f 487 467 465
f 488 466 468
f 487 469 467
f 488 468 470
f 487 471 469
f 488 470 472
f 487 473 471
f 488 472 474
f 487 475 473
f 488 474 476
f 487 477 475
f 488 476 478
f 487 479 477
f 488 478 480
f 487 481 479
f 488 480 482
f 487 483 481
f 488 482 484
f 487 485 483
f 488 484 486
f 487 447 485
f 488 486 448
f 489 491 492
f 489 492 490
f 491 493 494
f 491 494 492
f 493 495 496
f 493 496 494
f 495 497 498
f 495 498 496
f 497 499 500
f 497 500 498
f 499 501 502
f 499 502 500
f 501 503 504
f 501 504 502
f 503 505 506
f 503 506 504
f 505 507 508
f 505 508 506
f 507 509 510
f 507 510 508
f 509 511 512
f 509 512 510
f 511 513 514
f 511 514 512
f 513 515 516
f 513 516 514
f 515 517 518
f 515 518 516
f 517 519 520
f 517 520 518
f 519 521 522
f 519 522 520
f 521 523 524
f 521 524 522
f 523 525 526
f 523 526 524
f 525 527 528
f 525 528 526
f 527 489 490
f 527 490 528
f 529 491 489
f 530 490 492
f 529 493 491
f 530 492 494
f 529 495 493
f 530 494 496
f 529 497 495
f 530 496 498
f 529 499 497
f 530 498 500
f 529 501 499
f 530 500 502
f 529 503 501
f 530 502 504
f 529 505 503
f 530 504 506
f 529 507 505
f 530 506 508
f 529 509 507
f 530 508 510
f 529 511 509
f 530 510 512
f 529 513 511
f 530 512 514
f 529 515 513
f 530 514 516
f 529 517 515
f 530 516 518
f 529 519 517
f 530 518 520
f 529 521 519
f 530 520 522
f 529 523 521
f 530 522 524
f 529 525 523
f 530 524 526
f 529 527 525
f 530 526 528
f 529 489 527
f 530 528 490
f 531 533 534
f 531 534 532
f 533 535 536
f 533 536 534
f 535 537 538
f 535 538 536
f 537 539 540
f 537 540 538
f 539 541 542
f 539 542 540
f 541 543 544
f 541 544 542
f 543 545 546
f 543 546 544
f 545 547 548
f 545 548 546
f 547 549 550
f 547 550 548
f 549 551 552
f 549 552 550
f 551 553 554
f 551 554 552
f 553 555 556
f 553 556 554
f 555 557 558
f 555 558 556
f 557 559 560
f 557 560 558
f 559 561 562
f 559 562 560
f 561 563 564
f 561 564 562
f 563 565 566
f 563 566 564
f 565 567 568
f 565 568 566
f 567 569 570
f 567 570 568
f 569 531 532
f 569 532 570
f 571 533 531
f 572 532 534
f 571 535 533
f 572 534 536
f 571 537 535
f 572 536 538
f 571 539 537
f 572 538 540
f 571 541 539
f 572 540 542
f 571 543 541
f 572 542 544
f 571 545 543
f 572 544 546
f 571 547 545
f 572 546 548
f 571 549 547
f 572 548 550
f 571 551 549
f 572 550 552
f 571 553 551
f 572 552 554
f 571 555 553
f 572 554 556
f 571 557 555
f 572 556 558
f 571 559 557
f 572 558 560
f 571 561 559
f 572 560 562
f 571 563 561
f 572 562 564
f 571 565 563
f 572 564 566
f 571 567 565
f 572 566 568
f 571 569 567
f 572 568 570
f 571 531 569
f 572 570 532

g backplate
usemtl backplate
v -130.000 20.000 15.000
v 130.000 20.000 15.000
v 130.000 280.000 15.000
v -130.000 280.000 15.000
v -130.000 20.000 17.000
v 130.000 20.000 17.000
v 130.000 280.000 17.000
v -130.000 280.000 17.000
f 573 575 574
f 573 576 575
f 577 578 579
f 577 579 580
f 573 574 578
f 573 578 577
f 576 580 579
f 576 579 575
f 573 577 580
f 573 580 576
f 574 575 579
f 574 579 578

g SMPS_12V_60W
usemtl SMPS_12V_60W
v -125.000 159.000 17.000
v 5.000 159.000 17.000
v 5.000 257.000 17.000
v -125.000 257.000 17.000
v -125.000 159.000 57.000
v 5.000 159.000 57.000
v 5.000 257.000 57.000
v -125.000 257.000 57.000
f 581 583 582
f 581 584 583
f 585 586 587
f 585 587 588
f 581 582 586
f 581 586 585
f 584 588 587
f 584 587 583
f 581 585 588
f 581 588 584
f 582 583 587
f 582 587 586

g outlet_1gang
usemtl outlet_1gang
v 111.000 208.000 17.000
v 111.000 208.000 59.000
v 108.895 221.288 17.000
v 108.895 221.288 59.000
v 102.788 233.275 17.000
v 102.788 233.275 59.000
v 93.275 242.788 17.000
v 93.275 242.788 59.000
v 81.288 248.895 17.000
v 81.288 248.895 59.000
v 68.000 251.000 17.000
v 68.000 251.000 59.000
v 54.712 248.895 17.000
v 54.712 248.895 59.000
v 42.725 242.788 17.000
v 42.725 242.788 59.000
v 33.212 233.275 17.000
v 33.212 233.275 59.000
v 27.105 221.288 17.000
v 27.105 221.288 59.000
v 25.000 208.000 17.000
v 25.000 208.000 59.000
v 27.105 194.712 17.000
v 27.105 194.712 59.000
v 33.212 182.725 17.000
v 33.212 182.725 59.000
v 42.725 173.212 17.000
v 42.725 173.212 59.000
v 54.712 167.105 17.000
v 54.712 167.105 59.000
v 68.000 165.000 17.000
v 68.000 165.000 59.000
v 81.288 167.105 17.000
v 81.288 167.105 59.000
v 93.275 173.212 17.000
v 93.275 173.212 59.000
v 102.788 182.725 17.000
v 102.788 182.725 59.000
v 108.895 194.712 17.000
v 108.895 194.712 59.000
v 68.000 208.000 17.000
v 68.000 208.000 59.000
f 589 591 592
f 589 592 590
f 591 593 594
f 591 594 592
f 593 595 596
f 593 596 594
f 595 597 598
f 595 598 596
f 597 599 600
f 597 600 598
f 599 601 602
f 599 602 600
f 601 603 604
f 601 604 602
f 603 605 606
f 603 606 604
f 605 607 608
f 605 608 606
f 607 609 610
f 607 610 608
f 609 611 612
f 609 612 610
f 611 613 614
f 611 614 612
f 613 615 616
f 613 616 614
f 615 617 618
f 615 618 616
f 617 619 620
f 617 620 618
f 619 621 622
f 619 622 620
f 621 623 624
f 621 624 622
f 623 625 626
f 623 626 624
f 625 627 628
f 625 628 626
f 627 589 590
f 627 590 628
f 629 591 589
f 630 590 592
f 629 593 591
f 630 592 594
f 629 595 593
f 630 594 596
f 629 597 595
f 630 596 598
f 629 599 597
f 630 598 600
f 629 601 599
f 630 600 602
f 629 603 601
f 630 602 604
f 629 605 603
f 630 604 606
f 629 607 605
f 630 606 608
f 629 609 607
f 630 608 610
f 629 611 609
f 630 610 612
f 629 613 611
f 630 612 614
f 629 615 613
f 630 614 616
f 629 617 615
f 630 616 618
f 629 619 617
f 630 618 620
f 629 621 619
f 630 620 622
f 629 623 621
f 630 622 624
f 629 625 623
f 630 624 626
f 629 627 625
f 630 626 628
f 629 589 627
f 630 628 590

g pi_power_adapter
usemtl pi_power_adapter
v 45.000 185.000 59.000
v 91.000 185.000 59.000
v 91.000 231.000 59.000
v 45.000 231.000 59.000
v 45.000 185.000 103.000
v 91.000 185.000 103.000
v 91.000 231.000 103.000
v 45.000 231.000 103.000
f 631 633 632
f 631 634 633
f 635 636 637
f 635 637 638
f 631 632 636
f 631 636 635
f 634 638 637
f 634 637 633
f 631 635 638
f 631 638 634
f 632 633 637
f 632 637 636

g terminal_block_8P
usemtl terminal_block_8P
v -102.000 59.000 17.000
v 2.000 59.000 17.000
v 2.000 85.000 17.000
v -102.000 85.000 17.000
v -102.000 59.000 39.000
v 2.000 59.000 39.000
v 2.000 85.000 39.000
v -102.000 85.000 39.000
f 639 641 640
f 639 642 641
f 643 644 645
f 643 645 646
f 639 640 644
f 639 644 643
f 642 646 645
f 642 645 641
f 639 643 646
f 639 646 642
f 640 641 645
f 640 645 644

g raspberry_pi_4
usemtl raspberry_pi_4
v -62.500 102.000 107.000
v 22.500 102.000 107.000
v 22.500 158.000 107.000
v -62.500 158.000 107.000
v -62.500 102.000 110.000
v 22.500 102.000 110.000
v 22.500 158.000 110.000
v -62.500 158.000 110.000
f 647 649 648
f 647 650 649
f 651 652 653
f 651 653 654
f 647 648 652
f 647 652 651
f 650 654 653
f 650 653 649
f 647 651 654
f 647 654 650
f 648 649 653
f 648 653 652

g pi_heatsink_case
usemtl pi_heatsink_case
v -64.000 100.500 87.000
v 24.000 100.500 87.000
v 24.000 159.500 87.000
v -64.000 159.500 87.000
v -64.000 100.500 107.000
v 24.000 100.500 107.000
v 24.000 159.500 107.000
v -64.000 159.500 107.000
f 655 657 656
f 655 658 657
f 659 660 661
f 659 661 662
f 655 656 660
f 655 660 659
f 658 662 661
f 658 661 657
f 655 659 662
f 655 662 658
f 656 657 661
f 656 661 660

g usb_rs485
usemtl usb_rs485
v 27.000 120.000 95.500
v 97.000 120.000 95.500
v 97.000 140.000 95.500
v 27.000 140.000 95.500
v 27.000 120.000 110.500
v 97.000 120.000 110.500
v 97.000 140.000 110.500
v 27.000 140.000 110.500
f 663 665 664
f 663 666 665
f 667 668 669
f 667 669 670
f 663 664 668
f 663 668 667
f 666 670 669
f 666 669 665
f 663 667 670
f 663 670 666
f 664 665 669
f 664 669 668

g usb_ssd
usemtl usb_ssd
v -55.000 157.000 98.000
v 15.000 157.000 98.000
v 15.000 207.000 98.000
v -55.000 207.000 98.000
v -55.000 157.000 108.000
v 15.000 157.000 108.000
v 15.000 207.000 108.000
v -55.000 207.000 108.000
f 671 673 672
f 671 674 673
f 675 676 677
f 675 677 678
f 671 672 676
f 671 676 675
f 674 678 677
f 674 677 673
f 671 675 678
f 671 678 674
f 672 673 677
f 672 677 676

g vent_gore_M12
usemtl vent_gore_M12
v -98.750 -14.000 100.000
v -98.750 26.000 100.000
v -99.056 -14.000 101.931
v -99.056 26.000 101.931
v -99.944 -14.000 103.674
v -99.944 26.000 103.674
v -101.326 -14.000 105.056
v -101.326 26.000 105.056
v -103.069 -14.000 105.944
v -103.069 26.000 105.944
v -105.000 -14.000 106.250
v -105.000 26.000 106.250
v -106.931 -14.000 105.944
v -106.931 26.000 105.944
v -108.674 -14.000 105.056
v -108.674 26.000 105.056
v -110.056 -14.000 103.674
v -110.056 26.000 103.674
v -110.944 -14.000 101.931
v -110.944 26.000 101.931
v -111.250 -14.000 100.000
v -111.250 26.000 100.000
v -110.944 -14.000 98.069
v -110.944 26.000 98.069
v -110.056 -14.000 96.326
v -110.056 26.000 96.326
v -108.674 -14.000 94.944
v -108.674 26.000 94.944
v -106.931 -14.000 94.056
v -106.931 26.000 94.056
v -105.000 -14.000 93.750
v -105.000 26.000 93.750
v -103.069 -14.000 94.056
v -103.069 26.000 94.056
v -101.326 -14.000 94.944
v -101.326 26.000 94.944
v -99.944 -14.000 96.326
v -99.944 26.000 96.326
v -99.056 -14.000 98.069
v -99.056 26.000 98.069
v -105.000 -14.000 100.000
v -105.000 26.000 100.000
v -95.750 -14.000 100.000
v -95.750 -6.000 100.000
v -96.203 -14.000 102.858
v -96.203 -6.000 102.858
v -97.517 -14.000 105.437
v -97.517 -6.000 105.437
v -99.563 -14.000 107.483
v -99.563 -6.000 107.483
v -102.142 -14.000 108.797
v -102.142 -6.000 108.797
v -105.000 -14.000 109.250
v -105.000 -6.000 109.250
v -107.858 -14.000 108.797
v -107.858 -6.000 108.797
v -110.437 -14.000 107.483
v -110.437 -6.000 107.483
v -112.483 -14.000 105.437
v -112.483 -6.000 105.437
v -113.797 -14.000 102.858
v -113.797 -6.000 102.858
v -114.250 -14.000 100.000
v -114.250 -6.000 100.000
v -113.797 -14.000 97.142
v -113.797 -6.000 97.142
v -112.483 -14.000 94.563
v -112.483 -6.000 94.563
v -110.437 -14.000 92.517
v -110.437 -6.000 92.517
v -107.858 -14.000 91.203
v -107.858 -6.000 91.203
v -105.000 -14.000 90.750
v -105.000 -6.000 90.750
v -102.142 -14.000 91.203
v -102.142 -6.000 91.203
v -99.563 -14.000 92.517
v -99.563 -6.000 92.517
v -97.517 -14.000 94.563
v -97.517 -6.000 94.563
v -96.203 -14.000 97.142
v -96.203 -6.000 97.142
v -105.000 -14.000 100.000
v -105.000 -6.000 100.000
f 679 681 682
f 679 682 680
f 681 683 684
f 681 684 682
f 683 685 686
f 683 686 684
f 685 687 688
f 685 688 686
f 687 689 690
f 687 690 688
f 689 691 692
f 689 692 690
f 691 693 694
f 691 694 692
f 693 695 696
f 693 696 694
f 695 697 698
f 695 698 696
f 697 699 700
f 697 700 698
f 699 701 702
f 699 702 700
f 701 703 704
f 701 704 702
f 703 705 706
f 703 706 704
f 705 707 708
f 705 708 706
f 707 709 710
f 707 710 708
f 709 711 712
f 709 712 710
f 711 713 714
f 711 714 712
f 713 715 716
f 713 716 714
f 715 717 718
f 715 718 716
f 717 679 680
f 717 680 718
f 719 681 679
f 720 680 682
f 719 683 681
f 720 682 684
f 719 685 683
f 720 684 686
f 719 687 685
f 720 686 688
f 719 689 687
f 720 688 690
f 719 691 689
f 720 690 692
f 719 693 691
f 720 692 694
f 719 695 693
f 720 694 696
f 719 697 695
f 720 696 698
f 719 699 697
f 720 698 700
f 719 701 699
f 720 700 702
f 719 703 701
f 720 702 704
f 719 705 703
f 720 704 706
f 719 707 705
f 720 706 708
f 719 709 707
f 720 708 710
f 719 711 709
f 720 710 712
f 719 713 711
f 720 712 714
f 719 715 713
f 720 714 716
f 719 717 715
f 720 716 718
f 719 679 717
f 720 718 680
f 721 723 724
f 721 724 722
f 723 725 726
f 723 726 724
f 725 727 728
f 725 728 726
f 727 729 730
f 727 730 728
f 729 731 732
f 729 732 730
f 731 733 734
f 731 734 732
f 733 735 736
f 733 736 734
f 735 737 738
f 735 738 736
f 737 739 740
f 737 740 738
f 739 741 742
f 739 742 740
f 741 743 744
f 741 744 742
f 743 745 746
f 743 746 744
f 745 747 748
f 745 748 746
f 747 749 750
f 747 750 748
f 749 751 752
f 749 752 750
f 751 753 754
f 751 754 752
f 753 755 756
f 753 756 754
f 755 757 758
f 755 758 756
f 757 759 760
f 757 760 758
f 759 721 722
f 759 722 760
f 761 723 721
f 762 722 724
f 761 725 723
f 762 724 726
f 761 727 725
f 762 726 728
f 761 729 727
f 762 728 730
f 761 731 729
f 762 730 732
f 761 733 731
f 762 732 734
f 761 735 733
f 762 734 736
f 761 737 735
f 762 736 738
f 761 739 737
f 762 738 740
f 761 741 739
f 762 740 742
f 761 743 741
f 762 742 744
f 761 745 743
f 762 744 746
f 761 747 745
f 762 746 748
f 761 749 747
f 762 748 750
f 761 751 749
f 762 750 752
f 761 753 751
f 762 752 754
f 761 755 753
f 762 754 756
f 761 757 755
f 762 756 758
f 761 759 757
f 762 758 760
f 761 721 759
f 762 760 722

g M12_A_pH
usemtl M12_A_pH
v -45.750 -14.000 100.000
v -45.750 26.000 100.000
v -46.154 -14.000 102.549
v -46.154 26.000 102.549
v -47.326 -14.000 104.849
v -47.326 26.000 104.849
v -49.151 -14.000 106.674
v -49.151 26.000 106.674
v -51.451 -14.000 107.846
v -51.451 26.000 107.846
v -54.000 -14.000 108.250
v -54.000 26.000 108.250
v -56.549 -14.000 107.846
v -56.549 26.000 107.846
v -58.849 -14.000 106.674
v -58.849 26.000 106.674
v -60.674 -14.000 104.849
v -60.674 26.000 104.849
v -61.846 -14.000 102.549
v -61.846 26.000 102.549
v -62.250 -14.000 100.000
v -62.250 26.000 100.000
v -61.846 -14.000 97.451
v -61.846 26.000 97.451
v -60.674 -14.000 95.151
v -60.674 26.000 95.151
v -58.849 -14.000 93.326
v -58.849 26.000 93.326
v -56.549 -14.000 92.154
v -56.549 26.000 92.154
v -54.000 -14.000 91.750
v -54.000 26.000 91.750
v -51.451 -14.000 92.154
v -51.451 26.000 92.154
v -49.151 -14.000 93.326
v -49.151 26.000 93.326
v -47.326 -14.000 95.151
v -47.326 26.000 95.151
v -46.154 -14.000 97.451
v -46.154 26.000 97.451
v -54.000 -14.000 100.000
v -54.000 26.000 100.000
v -42.750 -14.000 100.000
v -42.750 -6.000 100.000
v -43.301 -14.000 103.476
v -43.301 -6.000 103.476
v -44.899 -14.000 106.613
v -44.899 -6.000 106.613
v -47.387 -14.000 109.101
v -47.387 -6.000 109.101
v -50.524 -14.000 110.699
v -50.524 -6.000 110.699
v -54.000 -14.000 111.250
v -54.000 -6.000 111.250
v -57.476 -14.000 110.699
v -57.476 -6.000 110.699
v -60.613 -14.000 109.101
v -60.613 -6.000 109.101
v -63.101 -14.000 106.613
v -63.101 -6.000 106.613
v -64.699 -14.000 103.476
v -64.699 -6.000 103.476
v -65.250 -14.000 100.000
v -65.250 -6.000 100.000
v -64.699 -14.000 96.524
v -64.699 -6.000 96.524
v -63.101 -14.000 93.387
v -63.101 -6.000 93.387
v -60.613 -14.000 90.899
v -60.613 -6.000 90.899
v -57.476 -14.000 89.301
v -57.476 -6.000 89.301
v -54.000 -14.000 88.750
v -54.000 -6.000 88.750
v -50.524 -14.000 89.301
v -50.524 -6.000 89.301
v -47.387 -14.000 90.899
v -47.387 -6.000 90.899
v -44.899 -14.000 93.387
v -44.899 -6.000 93.387
v -43.301 -14.000 96.524
v -43.301 -6.000 96.524
v -54.000 -14.000 100.000
v -54.000 -6.000 100.000
f 763 765 766
f 763 766 764
f 765 767 768
f 765 768 766
f 767 769 770
f 767 770 768
f 769 771 772
f 769 772 770
f 771 773 774
f 771 774 772
f 773 775 776
f 773 776 774
f 775 777 778
f 775 778 776
f 777 779 780
f 777 780 778
f 779 781 782
f 779 782 780
f 781 783 784
f 781 784 782
f 783 785 786
f 783 786 784
f 785 787 788
f 785 788 786
f 787 789 790
f 787 790 788
f 789 791 792
f 789 792 790
f 791 793 794
f 791 794 792
f 793 795 796
f 793 796 794
f 795 797 798
f 795 798 796
f 797 799 800
f 797 800 798
f 799 801 802
f 799 802 800
f 801 763 764
f 801 764 802
f 803 765 763
f 804 764 766
f 803 767 765
f 804 766 768
f 803 769 767
f 804 768 770
f 803 771 769
f 804 770 772
f 803 773 771
f 804 772 774
f 803 775 773
f 804 774 776
f 803 777 775
f 804 776 778
f 803 779 777
f 804 778 780
f 803 781 779
f 804 780 782
f 803 783 781
f 804 782 784
f 803 785 783
f 804 784 786
f 803 787 785
f 804 786 788
f 803 789 787
f 804 788 790
f 803 791 789
f 804 790 792
f 803 793 791
f 804 792 794
f 803 795 793
f 804 794 796
f 803 797 795
f 804 796 798
f 803 799 797
f 804 798 800
f 803 801 799
f 804 800 802
f 803 763 801
f 804 802 764
f 805 807 808
f 805 808 806
f 807 809 810
f 807 810 808
f 809 811 812
f 809 812 810
f 811 813 814
f 811 814 812
f 813 815 816
f 813 816 814
f 815 817 818
f 815 818 816
f 817 819 820
f 817 820 818
f 819 821 822
f 819 822 820
f 821 823 824
f 821 824 822
f 823 825 826
f 823 826 824
f 825 827 828
f 825 828 826
f 827 829 830
f 827 830 828
f 829 831 832
f 829 832 830
f 831 833 834
f 831 834 832
f 833 835 836
f 833 836 834
f 835 837 838
f 835 838 836
f 837 839 840
f 837 840 838
f 839 841 842
f 839 842 840
f 841 843 844
f 841 844 842
f 843 805 806
f 843 806 844
f 845 807 805
f 846 806 808
f 845 809 807
f 846 808 810
f 845 811 809
f 846 810 812
f 845 813 811
f 846 812 814
f 845 815 813
f 846 814 816
f 845 817 815
f 846 816 818
f 845 819 817
f 846 818 820
f 845 821 819
f 846 820 822
f 845 823 821
f 846 822 824
f 845 825 823
f 846 824 826
f 845 827 825
f 846 826 828
f 845 829 827
f 846 828 830
f 845 831 829
f 846 830 832
f 845 833 831
f 846 832 834
f 845 835 833
f 846 834 836
f 845 837 835
f 846 836 838
f 845 839 837
f 846 838 840
f 845 841 839
f 846 840 842
f 845 843 841
f 846 842 844
f 845 805 843
f 846 844 806

g M12_A_DO
usemtl M12_A_DO
v -9.750 -14.000 100.000
v -9.750 26.000 100.000
v -10.154 -14.000 102.549
v -10.154 26.000 102.549
v -11.326 -14.000 104.849
v -11.326 26.000 104.849
v -13.151 -14.000 106.674
v -13.151 26.000 106.674
v -15.451 -14.000 107.846
v -15.451 26.000 107.846
v -18.000 -14.000 108.250
v -18.000 26.000 108.250
v -20.549 -14.000 107.846
v -20.549 26.000 107.846
v -22.849 -14.000 106.674
v -22.849 26.000 106.674
v -24.674 -14.000 104.849
v -24.674 26.000 104.849
v -25.846 -14.000 102.549
v -25.846 26.000 102.549
v -26.250 -14.000 100.000
v -26.250 26.000 100.000
v -25.846 -14.000 97.451
v -25.846 26.000 97.451
v -24.674 -14.000 95.151
v -24.674 26.000 95.151
v -22.849 -14.000 93.326
v -22.849 26.000 93.326
v -20.549 -14.000 92.154
v -20.549 26.000 92.154
v -18.000 -14.000 91.750
v -18.000 26.000 91.750
v -15.451 -14.000 92.154
v -15.451 26.000 92.154
v -13.151 -14.000 93.326
v -13.151 26.000 93.326
v -11.326 -14.000 95.151
v -11.326 26.000 95.151
v -10.154 -14.000 97.451
v -10.154 26.000 97.451
v -18.000 -14.000 100.000
v -18.000 26.000 100.000
v -6.750 -14.000 100.000
v -6.750 -6.000 100.000
v -7.301 -14.000 103.476
v -7.301 -6.000 103.476
v -8.899 -14.000 106.613
v -8.899 -6.000 106.613
v -11.387 -14.000 109.101
v -11.387 -6.000 109.101
v -14.524 -14.000 110.699
v -14.524 -6.000 110.699
v -18.000 -14.000 111.250
v -18.000 -6.000 111.250
v -21.476 -14.000 110.699
v -21.476 -6.000 110.699
v -24.613 -14.000 109.101
v -24.613 -6.000 109.101
v -27.101 -14.000 106.613
v -27.101 -6.000 106.613
v -28.699 -14.000 103.476
v -28.699 -6.000 103.476
v -29.250 -14.000 100.000
v -29.250 -6.000 100.000
v -28.699 -14.000 96.524
v -28.699 -6.000 96.524
v -27.101 -14.000 93.387
v -27.101 -6.000 93.387
v -24.613 -14.000 90.899
v -24.613 -6.000 90.899
v -21.476 -14.000 89.301
v -21.476 -6.000 89.301
v -18.000 -14.000 88.750
v -18.000 -6.000 88.750
v -14.524 -14.000 89.301
v -14.524 -6.000 89.301
v -11.387 -14.000 90.899
v -11.387 -6.000 90.899
v -8.899 -14.000 93.387
v -8.899 -6.000 93.387
v -7.301 -14.000 96.524
v -7.301 -6.000 96.524
v -18.000 -14.000 100.000
v -18.000 -6.000 100.000
f 847 849 850
f 847 850 848
f 849 851 852
f 849 852 850
f 851 853 854
f 851 854 852
f 853 855 856
f 853 856 854
f 855 857 858
f 855 858 856
f 857 859 860
f 857 860 858
f 859 861 862
f 859 862 860
f 861 863 864
f 861 864 862
f 863 865 866
f 863 866 864
f 865 867 868
f 865 868 866
f 867 869 870
f 867 870 868
f 869 871 872
f 869 872 870
f 871 873 874
f 871 874 872
f 873 875 876
f 873 876 874
f 875 877 878
f 875 878 876
f 877 879 880
f 877 880 878
f 879 881 882
f 879 882 880
f 881 883 884
f 881 884 882
f 883 885 886
f 883 886 884
f 885 847 848
f 885 848 886
f 887 849 847
f 888 848 850
f 887 851 849
f 888 850 852
f 887 853 851
f 888 852 854
f 887 855 853
f 888 854 856
f 887 857 855
f 888 856 858
f 887 859 857
f 888 858 860
f 887 861 859
f 888 860 862
f 887 863 861
f 888 862 864
f 887 865 863
f 888 864 866
f 887 867 865
f 888 866 868
f 887 869 867
f 888 868 870
f 887 871 869
f 888 870 872
f 887 873 871
f 888 872 874
f 887 875 873
f 888 874 876
f 887 877 875
f 888 876 878
f 887 879 877
f 888 878 880
f 887 881 879
f 888 880 882
f 887 883 881
f 888 882 884
f 887 885 883
f 888 884 886
f 887 847 885
f 888 886 848
f 889 891 892
f 889 892 890
f 891 893 894
f 891 894 892
f 893 895 896
f 893 896 894
f 895 897 898
f 895 898 896
f 897 899 900
f 897 900 898
f 899 901 902
f 899 902 900
f 901 903 904
f 901 904 902
f 903 905 906
f 903 906 904
f 905 907 908
f 905 908 906
f 907 909 910
f 907 910 908
f 909 911 912
f 909 912 910
f 911 913 914
f 911 914 912
f 913 915 916
f 913 916 914
f 915 917 918
f 915 918 916
f 917 919 920
f 917 920 918
f 919 921 922
f 919 922 920
f 921 923 924
f 921 924 922
f 923 925 926
f 923 926 924
f 925 927 928
f 925 928 926
f 927 889 890
f 927 890 928
f 929 891 889
f 930 890 892
f 929 893 891
f 930 892 894
f 929 895 893
f 930 894 896
f 929 897 895
f 930 896 898
f 929 899 897
f 930 898 900
f 929 901 899
f 930 900 902
f 929 903 901
f 930 902 904
f 929 905 903
f 930 904 906
f 929 907 905
f 930 906 908
f 929 909 907
f 930 908 910
f 929 911 909
f 930 910 912
f 929 913 911
f 930 912 914
f 929 915 913
f 930 914 916
f 929 917 915
f 930 916 918
f 929 919 917
f 930 918 920
f 929 921 919
f 930 920 922
f 929 923 921
f 930 922 924
f 929 925 923
f 930 924 926
f 929 927 925
f 930 926 928
f 929 889 927
f 930 928 890

g M12_A_EC
usemtl M12_A_EC
v 26.250 -14.000 100.000
v 26.250 26.000 100.000
v 25.846 -14.000 102.549
v 25.846 26.000 102.549
v 24.674 -14.000 104.849
v 24.674 26.000 104.849
v 22.849 -14.000 106.674
v 22.849 26.000 106.674
v 20.549 -14.000 107.846
v 20.549 26.000 107.846
v 18.000 -14.000 108.250
v 18.000 26.000 108.250
v 15.451 -14.000 107.846
v 15.451 26.000 107.846
v 13.151 -14.000 106.674
v 13.151 26.000 106.674
v 11.326 -14.000 104.849
v 11.326 26.000 104.849
v 10.154 -14.000 102.549
v 10.154 26.000 102.549
v 9.750 -14.000 100.000
v 9.750 26.000 100.000
v 10.154 -14.000 97.451
v 10.154 26.000 97.451
v 11.326 -14.000 95.151
v 11.326 26.000 95.151
v 13.151 -14.000 93.326
v 13.151 26.000 93.326
v 15.451 -14.000 92.154
v 15.451 26.000 92.154
v 18.000 -14.000 91.750
v 18.000 26.000 91.750
v 20.549 -14.000 92.154
v 20.549 26.000 92.154
v 22.849 -14.000 93.326
v 22.849 26.000 93.326
v 24.674 -14.000 95.151
v 24.674 26.000 95.151
v 25.846 -14.000 97.451
v 25.846 26.000 97.451
v 18.000 -14.000 100.000
v 18.000 26.000 100.000
v 29.250 -14.000 100.000
v 29.250 -6.000 100.000
v 28.699 -14.000 103.476
v 28.699 -6.000 103.476
v 27.101 -14.000 106.613
v 27.101 -6.000 106.613
v 24.613 -14.000 109.101
v 24.613 -6.000 109.101
v 21.476 -14.000 110.699
v 21.476 -6.000 110.699
v 18.000 -14.000 111.250
v 18.000 -6.000 111.250
v 14.524 -14.000 110.699
v 14.524 -6.000 110.699
v 11.387 -14.000 109.101
v 11.387 -6.000 109.101
v 8.899 -14.000 106.613
v 8.899 -6.000 106.613
v 7.301 -14.000 103.476
v 7.301 -6.000 103.476
v 6.750 -14.000 100.000
v 6.750 -6.000 100.000
v 7.301 -14.000 96.524
v 7.301 -6.000 96.524
v 8.899 -14.000 93.387
v 8.899 -6.000 93.387
v 11.387 -14.000 90.899
v 11.387 -6.000 90.899
v 14.524 -14.000 89.301
v 14.524 -6.000 89.301
v 18.000 -14.000 88.750
v 18.000 -6.000 88.750
v 21.476 -14.000 89.301
v 21.476 -6.000 89.301
v 24.613 -14.000 90.899
v 24.613 -6.000 90.899
v 27.101 -14.000 93.387
v 27.101 -6.000 93.387
v 28.699 -14.000 96.524
v 28.699 -6.000 96.524
v 18.000 -14.000 100.000
v 18.000 -6.000 100.000
f 931 933 934
f 931 934 932
f 933 935 936
f 933 936 934
f 935 937 938
f 935 938 936
f 937 939 940
f 937 940 938
f 939 941 942
f 939 942 940
f 941 943 944
f 941 944 942
f 943 945 946
f 943 946 944
f 945 947 948
f 945 948 946
f 947 949 950
f 947 950 948
f 949 951 952
f 949 952 950
f 951 953 954
f 951 954 952
f 953 955 956
f 953 956 954
f 955 957 958
f 955 958 956
f 957 959 960
f 957 960 958
f 959 961 962
f 959 962 960
f 961 963 964
f 961 964 962
f 963 965 966
f 963 966 964
f 965 967 968
f 965 968 966
f 967 969 970
f 967 970 968
f 969 931 932
f 969 932 970
f 971 933 931
f 972 932 934
f 971 935 933
f 972 934 936
f 971 937 935
f 972 936 938
f 971 939 937
f 972 938 940
f 971 941 939
f 972 940 942
f 971 943 941
f 972 942 944
f 971 945 943
f 972 944 946
f 971 947 945
f 972 946 948
f 971 949 947
f 972 948 950
f 971 951 949
f 972 950 952
f 971 953 951
f 972 952 954
f 971 955 953
f 972 954 956
f 971 957 955
f 972 956 958
f 971 959 957
f 972 958 960
f 971 961 959
f 972 960 962
f 971 963 961
f 972 962 964
f 971 965 963
f 972 964 966
f 971 967 965
f 972 966 968
f 971 969 967
f 972 968 970
f 971 931 969
f 972 970 932
f 973 975 976
f 973 976 974
f 975 977 978
f 975 978 976
f 977 979 980
f 977 980 978
f 979 981 982
f 979 982 980
f 981 983 984
f 981 984 982
f 983 985 986
f 983 986 984
f 985 987 988
f 985 988 986
f 987 989 990
f 987 990 988
f 989 991 992
f 989 992 990
f 991 993 994
f 991 994 992
f 993 995 996
f 993 996 994
f 995 997 998
f 995 998 996
f 997 999 1000
f 997 1000 998
f 999 1001 1002
f 999 1002 1000
f 1001 1003 1004
f 1001 1004 1002
f 1003 1005 1006
f 1003 1006 1004
f 1005 1007 1008
f 1005 1008 1006
f 1007 1009 1010
f 1007 1010 1008
f 1009 1011 1012
f 1009 1012 1010
f 1011 973 974
f 1011 974 1012
f 1013 975 973
f 1014 974 976
f 1013 977 975
f 1014 976 978
f 1013 979 977
f 1014 978 980
f 1013 981 979
f 1014 980 982
f 1013 983 981
f 1014 982 984
f 1013 985 983
f 1014 984 986
f 1013 987 985
f 1014 986 988
f 1013 989 987
f 1014 988 990
f 1013 991 989
f 1014 990 992
f 1013 993 991
f 1014 992 994
f 1013 995 993
f 1014 994 996
f 1013 997 995
f 1014 996 998
f 1013 999 997
f 1014 998 1000
f 1013 1001 999
f 1014 1000 1002
f 1013 1003 1001
f 1014 1002 1004
f 1013 1005 1003
f 1014 1004 1006
f 1013 1007 1005
f 1014 1006 1008
f 1013 1009 1007
f 1014 1008 1010
f 1013 1011 1009
f 1014 1010 1012
f 1013 973 1011
f 1014 1012 974

g M12_A_SPARE
usemtl M12_A_SPARE
v 62.250 -14.000 100.000
v 62.250 26.000 100.000
v 61.846 -14.000 102.549
v 61.846 26.000 102.549
v 60.674 -14.000 104.849
v 60.674 26.000 104.849
v 58.849 -14.000 106.674
v 58.849 26.000 106.674
v 56.549 -14.000 107.846
v 56.549 26.000 107.846
v 54.000 -14.000 108.250
v 54.000 26.000 108.250
v 51.451 -14.000 107.846
v 51.451 26.000 107.846
v 49.151 -14.000 106.674
v 49.151 26.000 106.674
v 47.326 -14.000 104.849
v 47.326 26.000 104.849
v 46.154 -14.000 102.549
v 46.154 26.000 102.549
v 45.750 -14.000 100.000
v 45.750 26.000 100.000
v 46.154 -14.000 97.451
v 46.154 26.000 97.451
v 47.326 -14.000 95.151
v 47.326 26.000 95.151
v 49.151 -14.000 93.326
v 49.151 26.000 93.326
v 51.451 -14.000 92.154
v 51.451 26.000 92.154
v 54.000 -14.000 91.750
v 54.000 26.000 91.750
v 56.549 -14.000 92.154
v 56.549 26.000 92.154
v 58.849 -14.000 93.326
v 58.849 26.000 93.326
v 60.674 -14.000 95.151
v 60.674 26.000 95.151
v 61.846 -14.000 97.451
v 61.846 26.000 97.451
v 54.000 -14.000 100.000
v 54.000 26.000 100.000
v 65.250 -14.000 100.000
v 65.250 -6.000 100.000
v 64.699 -14.000 103.476
v 64.699 -6.000 103.476
v 63.101 -14.000 106.613
v 63.101 -6.000 106.613
v 60.613 -14.000 109.101
v 60.613 -6.000 109.101
v 57.476 -14.000 110.699
v 57.476 -6.000 110.699
v 54.000 -14.000 111.250
v 54.000 -6.000 111.250
v 50.524 -14.000 110.699
v 50.524 -6.000 110.699
v 47.387 -14.000 109.101
v 47.387 -6.000 109.101
v 44.899 -14.000 106.613
v 44.899 -6.000 106.613
v 43.301 -14.000 103.476
v 43.301 -6.000 103.476
v 42.750 -14.000 100.000
v 42.750 -6.000 100.000
v 43.301 -14.000 96.524
v 43.301 -6.000 96.524
v 44.899 -14.000 93.387
v 44.899 -6.000 93.387
v 47.387 -14.000 90.899
v 47.387 -6.000 90.899
v 50.524 -14.000 89.301
v 50.524 -6.000 89.301
v 54.000 -14.000 88.750
v 54.000 -6.000 88.750
v 57.476 -14.000 89.301
v 57.476 -6.000 89.301
v 60.613 -14.000 90.899
v 60.613 -6.000 90.899
v 63.101 -14.000 93.387
v 63.101 -6.000 93.387
v 64.699 -14.000 96.524
v 64.699 -6.000 96.524
v 54.000 -14.000 100.000
v 54.000 -6.000 100.000
f 1015 1017 1018
f 1015 1018 1016
f 1017 1019 1020
f 1017 1020 1018
f 1019 1021 1022
f 1019 1022 1020
f 1021 1023 1024
f 1021 1024 1022
f 1023 1025 1026
f 1023 1026 1024
f 1025 1027 1028
f 1025 1028 1026
f 1027 1029 1030
f 1027 1030 1028
f 1029 1031 1032
f 1029 1032 1030
f 1031 1033 1034
f 1031 1034 1032
f 1033 1035 1036
f 1033 1036 1034
f 1035 1037 1038
f 1035 1038 1036
f 1037 1039 1040
f 1037 1040 1038
f 1039 1041 1042
f 1039 1042 1040
f 1041 1043 1044
f 1041 1044 1042
f 1043 1045 1046
f 1043 1046 1044
f 1045 1047 1048
f 1045 1048 1046
f 1047 1049 1050
f 1047 1050 1048
f 1049 1051 1052
f 1049 1052 1050
f 1051 1053 1054
f 1051 1054 1052
f 1053 1015 1016
f 1053 1016 1054
f 1055 1017 1015
f 1056 1016 1018
f 1055 1019 1017
f 1056 1018 1020
f 1055 1021 1019
f 1056 1020 1022
f 1055 1023 1021
f 1056 1022 1024
f 1055 1025 1023
f 1056 1024 1026
f 1055 1027 1025
f 1056 1026 1028
f 1055 1029 1027
f 1056 1028 1030
f 1055 1031 1029
f 1056 1030 1032
f 1055 1033 1031
f 1056 1032 1034
f 1055 1035 1033
f 1056 1034 1036
f 1055 1037 1035
f 1056 1036 1038
f 1055 1039 1037
f 1056 1038 1040
f 1055 1041 1039
f 1056 1040 1042
f 1055 1043 1041
f 1056 1042 1044
f 1055 1045 1043
f 1056 1044 1046
f 1055 1047 1045
f 1056 1046 1048
f 1055 1049 1047
f 1056 1048 1050
f 1055 1051 1049
f 1056 1050 1052
f 1055 1053 1051
f 1056 1052 1054
f 1055 1015 1053
f 1056 1054 1016
f 1057 1059 1060
f 1057 1060 1058
f 1059 1061 1062
f 1059 1062 1060
f 1061 1063 1064
f 1061 1064 1062
f 1063 1065 1066
f 1063 1066 1064
f 1065 1067 1068
f 1065 1068 1066
f 1067 1069 1070
f 1067 1070 1068
f 1069 1071 1072
f 1069 1072 1070
f 1071 1073 1074
f 1071 1074 1072
f 1073 1075 1076
f 1073 1076 1074
f 1075 1077 1078
f 1075 1078 1076
f 1077 1079 1080
f 1077 1080 1078
f 1079 1081 1082
f 1079 1082 1080
f 1081 1083 1084
f 1081 1084 1082
f 1083 1085 1086
f 1083 1086 1084
f 1085 1087 1088
f 1085 1088 1086
f 1087 1089 1090
f 1087 1090 1088
f 1089 1091 1092
f 1089 1092 1090
f 1091 1093 1094
f 1091 1094 1092
f 1093 1095 1096
f 1093 1096 1094
f 1095 1057 1058
f 1095 1058 1096
f 1097 1059 1057
f 1098 1058 1060
f 1097 1061 1059
f 1098 1060 1062
f 1097 1063 1061
f 1098 1062 1064
f 1097 1065 1063
f 1098 1064 1066
f 1097 1067 1065
f 1098 1066 1068
f 1097 1069 1067
f 1098 1068 1070
f 1097 1071 1069
f 1098 1070 1072
f 1097 1073 1071
f 1098 1072 1074
f 1097 1075 1073
f 1098 1074 1076
f 1097 1077 1075
f 1098 1076 1078
f 1097 1079 1077
f 1098 1078 1080
f 1097 1081 1079
f 1098 1080 1082
f 1097 1083 1081
f 1098 1082 1084
f 1097 1085 1083
f 1098 1084 1086
f 1097 1087 1085
f 1098 1086 1088
f 1097 1089 1087
f 1098 1088 1090
f 1097 1091 1089
f 1098 1090 1092
f 1097 1093 1091
f 1098 1092 1094
f 1097 1095 1093
f 1098 1094 1096
f 1097 1057 1095
f 1098 1096 1058

g AC_inlet
usemtl AC_inlet
v 113.250 -14.000 100.000
v 113.250 26.000 100.000
v 112.846 -14.000 102.549
v 112.846 26.000 102.549
v 111.674 -14.000 104.849
v 111.674 26.000 104.849
v 109.849 -14.000 106.674
v 109.849 26.000 106.674
v 107.549 -14.000 107.846
v 107.549 26.000 107.846
v 105.000 -14.000 108.250
v 105.000 26.000 108.250
v 102.451 -14.000 107.846
v 102.451 26.000 107.846
v 100.151 -14.000 106.674
v 100.151 26.000 106.674
v 98.326 -14.000 104.849
v 98.326 26.000 104.849
v 97.154 -14.000 102.549
v 97.154 26.000 102.549
v 96.750 -14.000 100.000
v 96.750 26.000 100.000
v 97.154 -14.000 97.451
v 97.154 26.000 97.451
v 98.326 -14.000 95.151
v 98.326 26.000 95.151
v 100.151 -14.000 93.326
v 100.151 26.000 93.326
v 102.451 -14.000 92.154
v 102.451 26.000 92.154
v 105.000 -14.000 91.750
v 105.000 26.000 91.750
v 107.549 -14.000 92.154
v 107.549 26.000 92.154
v 109.849 -14.000 93.326
v 109.849 26.000 93.326
v 111.674 -14.000 95.151
v 111.674 26.000 95.151
v 112.846 -14.000 97.451
v 112.846 26.000 97.451
v 105.000 -14.000 100.000
v 105.000 26.000 100.000
v 116.250 -14.000 100.000
v 116.250 -6.000 100.000
v 115.699 -14.000 103.476
v 115.699 -6.000 103.476
v 114.101 -14.000 106.613
v 114.101 -6.000 106.613
v 111.613 -14.000 109.101
v 111.613 -6.000 109.101
v 108.476 -14.000 110.699
v 108.476 -6.000 110.699
v 105.000 -14.000 111.250
v 105.000 -6.000 111.250
v 101.524 -14.000 110.699
v 101.524 -6.000 110.699
v 98.387 -14.000 109.101
v 98.387 -6.000 109.101
v 95.899 -14.000 106.613
v 95.899 -6.000 106.613
v 94.301 -14.000 103.476
v 94.301 -6.000 103.476
v 93.750 -14.000 100.000
v 93.750 -6.000 100.000
v 94.301 -14.000 96.524
v 94.301 -6.000 96.524
v 95.899 -14.000 93.387
v 95.899 -6.000 93.387
v 98.387 -14.000 90.899
v 98.387 -6.000 90.899
v 101.524 -14.000 89.301
v 101.524 -6.000 89.301
v 105.000 -14.000 88.750
v 105.000 -6.000 88.750
v 108.476 -14.000 89.301
v 108.476 -6.000 89.301
v 111.613 -14.000 90.899
v 111.613 -6.000 90.899
v 114.101 -14.000 93.387
v 114.101 -6.000 93.387
v 115.699 -14.000 96.524
v 115.699 -6.000 96.524
v 105.000 -14.000 100.000
v 105.000 -6.000 100.000
f 1099 1101 1102
f 1099 1102 1100
f 1101 1103 1104
f 1101 1104 1102
f 1103 1105 1106
f 1103 1106 1104
f 1105 1107 1108
f 1105 1108 1106
f 1107 1109 1110
f 1107 1110 1108
f 1109 1111 1112
f 1109 1112 1110
f 1111 1113 1114
f 1111 1114 1112
f 1113 1115 1116
f 1113 1116 1114
f 1115 1117 1118
f 1115 1118 1116
f 1117 1119 1120
f 1117 1120 1118
f 1119 1121 1122
f 1119 1122 1120
f 1121 1123 1124
f 1121 1124 1122
f 1123 1125 1126
f 1123 1126 1124
f 1125 1127 1128
f 1125 1128 1126
f 1127 1129 1130
f 1127 1130 1128
f 1129 1131 1132
f 1129 1132 1130
f 1131 1133 1134
f 1131 1134 1132
f 1133 1135 1136
f 1133 1136 1134
f 1135 1137 1138
f 1135 1138 1136
f 1137 1099 1100
f 1137 1100 1138
f 1139 1101 1099
f 1140 1100 1102
f 1139 1103 1101
f 1140 1102 1104
f 1139 1105 1103
f 1140 1104 1106
f 1139 1107 1105
f 1140 1106 1108
f 1139 1109 1107
f 1140 1108 1110
f 1139 1111 1109
f 1140 1110 1112
f 1139 1113 1111
f 1140 1112 1114
f 1139 1115 1113
f 1140 1114 1116
f 1139 1117 1115
f 1140 1116 1118
f 1139 1119 1117
f 1140 1118 1120
f 1139 1121 1119
f 1140 1120 1122
f 1139 1123 1121
f 1140 1122 1124
f 1139 1125 1123
f 1140 1124 1126
f 1139 1127 1125
f 1140 1126 1128
f 1139 1129 1127
f 1140 1128 1130
f 1139 1131 1129
f 1140 1130 1132
f 1139 1133 1131
f 1140 1132 1134
f 1139 1135 1133
f 1140 1134 1136
f 1139 1137 1135
f 1140 1136 1138
f 1139 1099 1137
f 1140 1138 1100
f 1141 1143 1144
f 1141 1144 1142
f 1143 1145 1146
f 1143 1146 1144
f 1145 1147 1148
f 1145 1148 1146
f 1147 1149 1150
f 1147 1150 1148
f 1149 1151 1152
f 1149 1152 1150
f 1151 1153 1154
f 1151 1154 1152
f 1153 1155 1156
f 1153 1156 1154
f 1155 1157 1158
f 1155 1158 1156
f 1157 1159 1160
f 1157 1160 1158
f 1159 1161 1162
f 1159 1162 1160
f 1161 1163 1164
f 1161 1164 1162
f 1163 1165 1166
f 1163 1166 1164
f 1165 1167 1168
f 1165 1168 1166
f 1167 1169 1170
f 1167 1170 1168
f 1169 1171 1172
f 1169 1172 1170
f 1171 1173 1174
f 1171 1174 1172
f 1173 1175 1176
f 1173 1176 1174
f 1175 1177 1178
f 1175 1178 1176
f 1177 1179 1180
f 1177 1180 1178
f 1179 1141 1142
f 1179 1142 1180
f 1181 1143 1141
f 1182 1142 1144
f 1181 1145 1143
f 1182 1144 1146
f 1181 1147 1145
f 1182 1146 1148
f 1181 1149 1147
f 1182 1148 1150
f 1181 1151 1149
f 1182 1150 1152
f 1181 1153 1151
f 1182 1152 1154
f 1181 1155 1153
f 1182 1154 1156
f 1181 1157 1155
f 1182 1156 1158
f 1181 1159 1157
f 1182 1158 1160
f 1181 1161 1159
f 1182 1160 1162
f 1181 1163 1161
f 1182 1162 1164
f 1181 1165 1163
f 1182 1164 1166
f 1181 1167 1165
f 1182 1166 1168
f 1181 1169 1167
f 1182 1168 1170
f 1181 1171 1169
f 1182 1170 1172
f 1181 1173 1171
f 1182 1172 1174
f 1181 1175 1173
f 1182 1174 1176
f 1181 1177 1175
f 1182 1176 1178
f 1181 1179 1177
f 1182 1178 1180
f 1181 1141 1179
f 1182 1180 1142

g sun_shield
usemtl sun_shield
v -170.000 325.000 -40.000
v 170.000 325.000 -40.000
v 170.000 326.500 -40.000
v -170.000 326.500 -40.000
v -170.000 325.000 165.000
v 170.000 325.000 165.000
v 170.000 326.500 165.000
v -170.000 326.500 165.000
v -170.000 285.000 163.500
v 170.000 285.000 163.500
v 170.000 326.500 163.500
v -170.000 326.500 163.500
v -170.000 285.000 165.000
v 170.000 285.000 165.000
v 170.000 326.500 165.000
v -170.000 326.500 165.000
f 1183 1185 1184
f 1183 1186 1185
f 1187 1188 1189
f 1187 1189 1190
f 1183 1184 1188
f 1183 1188 1187
f 1186 1190 1189
f 1186 1189 1185
f 1183 1187 1190
f 1183 1190 1186
f 1184 1185 1189
f 1184 1189 1188
f 1191 1193 1192
f 1191 1194 1193
f 1195 1196 1197
f 1195 1197 1198
f 1191 1192 1196
f 1191 1196 1195
f 1194 1198 1197
f 1194 1197 1193
f 1191 1195 1198
f 1191 1198 1194
f 1192 1193 1197
f 1192 1197 1196
